/* XPM */
static char *out[] = {
/* columns rows colors chars-per-pixel */
"32 256 7 1 ",
"  c #4F0000",
". c #570000",
"X c #5F0000",
"o c #670000",
"O c #6F0000",
"+ c #770000",
"@ c #7F0000",
/* pixels */
"O@o@OOOO@@@O+@+@O@@+oo@@@oOo@XoO",
"O+o@++OO@@@OO@+@O@@+oo@@@oOo@.o+",
"O@o@++OO@@@@O@+@O@@OoO@@@oOo@.o+",
"O+o@++OO@@@@O++@+@@OoO@@+oOo@.o+",
"O@o++++O@@@+O+++O@@OO+@@+oOO@.o+",
"O@OO+++O@@@@OO+@O@+Oo+@@+oOO@.OO",
"O@OO+++O@@@@OOO@O@+OO@@@OoOO@.OO",
"O@OO@++O@@@@@OO@O@OOO@@@Ooo+@.OO",
"O@OO@O+O+@@@OOO@O@+OO@@@OooO+.OO",
"O@OO@++O+@@@OOO+O@+Oo@@@Ooo++.OO",
"X@Oo+++O+@@@OO++O@+Oo@@@OOo+@.OO",
"@@Oo++OO+@@@Oo++O@+OO@@@OOo++.OO",
"O++o+@O++@@@Oo++O@+OO@@@OOX+@.OO",
"O@+o+@O++@@@OoO+O@OOO@@@OOX++.OO",
"+@+o+@O@O@@@OoO@+@OOO@@@OoX@+.OO",
"+++o+@O@O@@@OoO+O@OOO@@@OOX@OX+O",
"+@+X+@O@O@@@OoO++@O+O@@@OOX@OX++",
"+@+X+@O@O@@@@OO+@@O++@@+OoX@OX++",
"@@+XO@+@+@@@+OOO@@O++@@++oo@oX+O",
"@@@XO@+++@@@@OOO@@O+@@@O+oo@oX+O",
"@+@XO@+++@@@@O+O@@O+@@@O@oo@oX+O",
"@+@XO@++@@@@@OOO@@OO@@@O@oO@oX@+",
"@+@.o@++@@@@@OOO@@O+@@+O@oO@Xo@+",
"@O@.o@++@@@@@OO+@@O+@@+O@XO@Xo@+",
"@O@.o@@O@@@@@O++@@O+@@OO@XO@Xo@+",
"@O@.o@@O@@@@@O+@@@O@@+OO@X++Xo@+",
"@O@.o@@O@@@@@+++@@+@@+O+@X++XO@+",
"@O@.o@@o@@@@@++@@@+@++o+@X++.O@+",
"@O@.o@@o@@@@@++@@@+@++o+@X+OXO@+",
"@O@.o@@o@@@@@++@@@+@++o@+X@OXO@+",
"@o@.o@@o@@@@@++@@@@@OOo@+X@OXO@+",
"@o@Xo@@o@@@@@++@@@++OOo@+X@OXO@@",
"@O@Xo@@o@@+@@++@@@+++Oo@OX@oXO@@",
"@o@Xo@@o@@+@@++@@@+++Oo@Oo@oX+++",
"@o@Xo@@o+@+@@+++@@++OoO@Oo@XX+@+",
"@o@Xo@@O+@+@@++@@@++OoO+OO@XX+++",
"@o@Xo@@OO@+@@O+@@@++OoO+OO@XX+++",
"@o@oo+@OO@@@@OO@@@O+Oo++OO@XX+O+",
"@o+oo+@+O@@+@OO@@@OOOo++OO@XX+O+",
"@o+oo+@+o@@@@O++@@OOOO++o@@XX+O+",
"@o@oXO@@O@@@@O++@@OOOO+Oo@+XX+O+",
"@o+oXO@@o@@@@O++@@OOO@+OO@+XX+O+",
"@o+OXO@@o@@@+O++@+OOO@+O+@OXX@O+",
"@o+OXO@@O@@@+O++@@OOO@OO+@OXX+o+",
"@o+OXO@@O@@@OOO+@+OOO@OO+@Ooo+o+",
"@O+@.O@@O@@@OOOO@+OOO@OO+@ooo+o+",
"@O++.O@@O@@@OOOO@+OoO@OO+@ooo+o+",
"@O+@.O@@+@@@OOOO++OoO@OO@@Xoo+O+",
"@OO@.O@@+@@@OoOO++Oo+@oO@@Xoo+O+",
"@OO@.O@@@@@@OoOO@+Oo+XoO@@Xoo+O@",
"+OO@.O@@@@@@OoOO++OO+XoO@@XOo+O@",
"+OO@ O@@@@@@+XOO+OoO+Oo+@@.OO+O@",
"+OO@ O@@@@@@@oOO+OoO+oo+@@.OO+O@",
"+Oo@ O@@@@@@@oOO+OoO+Xo+@@.OOO+@",
"+Oo@.o@@@@@@+oOO+OoO+oo+@@.OOO+@",
"@Oo@.O@@@@@@@oOO+OoO+oo+@@.OOO+@",
"@OX@.O@@@@@@@OOOOOoO+oo+@@XO+O+@",
"O+X@.O@@@@@@@OOOOOOO+oo@@@XO@o+@",
"O+X@.o@@@@@@@OO+OOOO+oo@@OXO@o+@",
"O+X@Xo@@@@@@@OOOOOOO+oO@@Ooo@o+@",
"o+X@Xo@@@@@@@OOOOOoO+oO@@Ooo@o@@",
"o+X@oo@@@@@@@OO+OOoO+oO@@ooo+o+@",
"o@X@oX@@@@@@@OOOOOoOOOO@@ooo+o@@",
"O@X@oX@@@@@@@+OOOOOOOo+@@oOo+o+@",
"O@X@OX@@@@@@@O+OoOOOOX+@@oOX@X+@",
"+@X@OX@@@@@@@O+OOOOOOO+@@oOX@X++",
"++X@OX@@@@@@@+OOOOOoO@@@@oOX@o@+",
"++X@+X@@@@@@@+OOOOooO@@@@OOX@X++",
"++X@+X@@@@@@@+OOOOooOO@@@OOo@.++",
"+@X@+X@@@@@@@@OOOOooOO@@@OOo@.@+",
"@@X@+.@@@@@@@@OOOOooO+@@+OOo@.@O",
"@@X++.@@@@@@@@OOOOooO@@@+OoO@.@O",
"@@X++X@@@@@@@@OOOOoOO@@@++oO@.@O",
"@@XO+X@@@@@@@+OOOOoO+@@@++oO@.@O",
"@@oO+X@@@@@@@++OOOoO+@@@O@oO@.@O",
"@@oO+X@@@@@@@@+OOOoO+@@@O@XO@X@O",
"@@oo+X@@@@@@@++O++oO+@@@O@X+@X@o",
"@@oo+o@@@@@@@++O++oO+@@@O@X++X@o",
"@@oo+o@@@@@@@O+O+OoO+@@@O@X@+o@o",
"@@oo+o+@@@@@+O+O+OoO+@@@O@X@Oo@o",
"@@oo+O+@@@@@@O+O++oO+@@+O@X@Oo@o",
"@@oo+O+@@@@@@O+O++OO+@@+O@X@oo@o",
"@@oo+O+@@@@@@O+O++OO+@@++@X@oo@o",
"@@oXOO+@@@@@@O+O++O++@@++@X@oo@o",
"@@oXO++@@@@@@O+O++O++@@O++X@Xo@O",
"@@OXO++@@@@@@O+O++O++@@O++X@Xo@O",
"@@OXO++@@@@@@O+O++O+@@@O++o@Xo@O",
"@@OXO@+@@@@@@O+O++O++@@O++o@.O@O",
"@@OXO+@@@@@@@O+O++O+@@@O@OO@.O@O",
"@@OXO@+@@@@@@O++++O++@+O@OO@.O@O",
"@@O.o+@@@@@@@O+++@+++@@+@O+@.O@O",
"@@+Xo@@@@@@@@O+O+@O++@@+@o+@.O@O",
"@@+Xo+@@@@@@@O+O@@+O@@++@O+@.+@O",
"@@+Xo+@@@@@@@++O+@+O+@++@O@@.+@O",
"@@+Xo+@@@@@@@O@O+@OO+@+++O@+.+@O",
"@@+XoO@@@@@@@O++@@OO@@+++O@+.+@O",
"@+@XXO@@@@@@@O@O+@OO@@O@+@@+.@@O",
"@+@.XO@@@@@@@+@O+@OO@@O@+@@+.@@+",
"@O@XoO@@@@@@@O@@+@OO@@@@O@@O.@@+",
"@O@XoO@@@@@@@O@@+@OO@@@@O@@O.@++",
"@+@Xoo@@@@@@@O@@+@OO+@@@O@@O.@@+",
"@++XXo@@@@@@@O++++OO+@@@O@@o.@@+",
"@@+XXO@@@@@@@O++++OO+@@@O@@o.@@+",
"@++XXo@@@@@@@O++++OO+@@@O@@o.@++",
"@O+oXo@@@@@@@O++++OOO@@@O@+X.@++",
"@OOoXX@@@@@@@O@+++OOO@@@O@+XX@O@",
"+OOoXX@@@@@@@O+O++OO+@@@+@+XX@O@",
"+OOoXX@@@@@@@O@+++OOO+@@+@+XX@O+",
"@OOOoX@@@@@@@O+O++OOO+@@+@OXX@++",
"+ooOoX@@@@@@@O@+++oOOO@@+@OXo@O+",
"+ooOoX@@@@@@@O@+++oOOO@+@@OXo@O@",
"+OoOoX@@@@@@+O@+++oOO+@+@@OXO@O@",
"+OoOoX@@@@@@@O@+++oOO+@+@@oXo@O@",
"+Oo+oX@@@@@@@O@+++oOO+@+@@oXO@O@",
"+@o+oX@@@@@@@O@+++oOO+@+@@o.O@O@",
"+@o+XX@@@@@@@O@@++oOO@@+@@oXO@O@",
"+@o+XX@@@@@@@O+@++oOO@@+@@oXO@O+",
"O@X+Xo@@@@@@@O+@O+oOO@@@@@oXO@O@",
"O@X+Xo@@@@@@@OO@O+oOO@@@@@oXO+O@",
"+@X+Xo@@@@@@@O+@++oOO@@@@@oX++O@",
"+@X+.o+@@@@@+o+++@oOO@@@@+oX+OO@",
"@@X+XO+@@@@@+oOO+@oOO@@@@+oX+OO@",
"+@X@XO+@@@@@+OOO+@OOO@@@@OoX+OO@",
"+@X+XO+@@@@@+oOO+@oOO@@@@OoX+OO@",
"+@X+XO+@@@@@+oOO+@OOO@@@@OoX+oO@",
"O@o@Xo+@@@@@+oOO+@oOO@@@@OoX+o@@",
"O+o+Xo@@@@@@+oO++@O+o@@@@OoX+o@@",
"++OOoo@@@@@@+OOOO+OOo@@@@OOX+oO@",
"++OOoo@@@@@@@oOoO+OOo@@@@OOX+o@@",
"O+OOoo@@@@@@@OOO++OOo@@@@OOX@oO@",
"@+OOOo@@@@@@+OOO++OOo@@@@OOX@oO@",
"++OoOX@@@@@@+OOOO+OOo@@@@Ooo@X+@",
"@+Oo+X@+@@@@@OOOO+Ooo@@@+Ooo@X+@",
"@+@o+X@+@@@@++OOO+Ooo@@@+@oo@X+@",
"@+Oo+X@+@@@@++OOO+Ooo@@@+OoO@X++",
"@+Oo@.@+@@@@@OO+OOOoo@@@+OoO@X++",
"@+Oo@.@+@@@@@OO+OOooo@@@+OoO@X++",
"@++X@.@@@@@@@OO++Oooo@@@++oO@.++",
"@++X+.@@+@@@@+O+++oOo@@@++o+@.+O",
"@++X@X@@+@@@@+O+OOoOo@@@++X+@.+O",
"@O+X@X@@O@@@@+O+OOoOo@@@++X@@X+O",
"@O+.@X@@O@@@@+O+OOoOO@@@@+X@@X@O",
"@O+.+X@@O@@@++O+OOoOO@@@@+X@@X+o",
"@O@.+o@@O@@@@+O+OOoOO@@@@OX@@X@o",
"@O@.+o@@O@@@@+O+OOoOO@@@@OX@+X+o",
"@O@.OO@@o@@@@+OOOOoO+@@@@Oo@+X@o",
"@O+.OO@@o@@@@+OOO+OO+@@@@Oo@+X+O",
"@O+.O+@@o@@@@+OOO+O++@@@@oo@+X@O",
"@O+.O+@@O@@@@+OOO+o++@@@@oo@Oo+o",
"@+@.o@@@O@@@@+OOOOo+@@@@@Xo@Oo@o",
"@+@Xo@@@O+@@@+O+OOo+@@@@@XO@Oo@o",
"@++XX@@@O+@@@+OOOOo@@@@@@XO@Oo+o",
"@+@XX@@@O+@@@OOOO+O+@@+@@XO@OO+o",
"@+@XX@@@+O@@@OOO++O++@+@@XO@OO+o",
"@+@X.@@@+O@@@OO+++O++@+@@XO@OO+o",
"@O@X.@@@@O@@@+O+O++++@+@@XO@oOOo",
"@O@..@@@+O@@@+O@+@+++@+@@X+@o+Oo",
"@O+X.@@@@O@@@+O@+@O++@+@@X+@o+Oo",
"@O+X.@@@@O@@@++@O++++++@@XO@o+Oo",
"@O+X.@@@@+@@@++@O+O++++@+oO@o+OO",
"@O+X.@@+@+@@@++@++++++@@+oO@o+OO",
"@OOX.@@+@+@@@++@++O++O@@+oO@o+OO",
"@OOo @@+++@@@O+@O+OO+O@@+O+@o@oO",
"@Ooo @@+++@@@O+@++O++O@@+OO@o@oO",
"@OOO +@O++@@@O+@++O++O@@O+O+o@oO",
"@+Oo O@O++@@@O+@++O++O@@O@O+o@oO",
"@+OO O@+O+@@@OO+@+o++O@@O@@+o@oO",
"@+oO.O@@O++@@Oo+++O+++@@O@+Oo@oO",
"@+oO.o@+o@@@@OX+++O+++@@O@+Oo@oO",
"++oO.o@@X@@@@oX++OO+++@@O@+Oo@oO",
"++oO.o@@X@@@@oo++Oo+++@@O@+Oo@XO",
"++oO.o@@X+@@@oo+@Oo+++@@O@+Oo@X+",
"+@oO.X@@X@@@@oo+@Oo+++@@O@+Oo@XO",
"+@X+XX@@X+@@@oO+@oo+@O@@+@+oo@Xo",
"+@X+XX@@XO@@@oO++oo+@O@@+@OoO@Xo",
"@@.@XX@@XO@@@oO+@oo+@O@@+@OoO@XO",
"+@.+Xo@@oo@@@o++@oo@@O@@@@OoO@XO",
"O@X+Xo@@oo@@+o+++oo@@O@@@@OoO@XO",
"O@X+Xo@@Oo@@+o++@oo@@O@+@@Oo+@XO",
"+@X+Xo@@OX@@+o+O@oo@@O++@@Oo+@XO",
"+@X+Xo@@+X@@OO++@oo@+O++@@oX+@XO",
"O@X+Xo@@+X@@+O++@oo@+O++@@oX++XO",
"O@X@Xo@@+X@@+O++@oo@+O++@@OX++XO",
"O@X+Xo@@@X@@@o+++oo@+O+@@@oX@+X+",
"O@X+Xo@@@X+@@oO@@Oo@+O+@@@oX@+X+",
"O@X+Xo@@@XO@@o++@oo++o+@@@oX@OX+",
"O@X+Xo@@@XO@@o+++oO+Oo+@@@oX@OX+",
"O@XOoO@@@oo@@o+@+oO+OX+@@@oX@oX@",
"o@XOoO+@@oo@@o+@@oO@Oo@@@@oX@oX@",
"o@X+oO+@@oX@@O+@@oo@Oo+@@@oX@oX+",
"o@o@oOO@@OX@@O+@+oo@Oo+@@@Xo@oo+",
"o@oOoO+@@OXo@O+@+oo@oX+@@@Xo@oo+",
"o@oooO+@@+Xo@O@@+oo+oX+@@@Xo@Xo+",
"o@oooO+@@+Xo@O@@+oo+oX+@@@Xo@Xo+",
"O@oooOO@@+oo@O@@@oXOoo@@@@Xo@XoO",
"O@OooOO@@+oo@O@@+oX+oo@@@@XO@XOO",
"+@OXoOO@@@ooOO@@+oX+oo@@@@XO@XOO",
"O@+XOO+@@@OoOO@@+oX+Oo@@@@XO@XOO",
"O@+XOO+@@@OoO+@@+oXOOo@@@@X+@.OO",
"O@+XOO+@@@OoO+@@+XX+Oo@@@+X+@.OO",
"O@+.OO+@@++OOO@@OXX+Oo@@@+X+@.OO",
"O@+.OO+@@++OO+@@+XX+Oo@@@+X@@.OO",
"O@+.+O+@@+@Oo+@@+XX+Oo@@@+X@@.+O",
"O@@.+O@@@O@Oo+@@OXX+OO@@@+X@@.+O",
"o@@.+O+@@O@Oo+@@+XX@+@@@@OX@@.+O",
"o@+.+O+@@O@Oo+@@+XX@+@@@@OX@@.+o",
"o@+.+O+@@O@+o+@@+XX+@@@@@OX@@.+o",
"O@+.+O+@@O@@o+@@@XX@@@@@@OX@@.+o",
"O@+.+O+@@O@@X+@@@XX@@@@@@Oo@@.+o",
"O@+.OO+@+O@@O+@@+XX+@@@@@oo@+X+o",
"+++.OO+@@O@@O+@@+Xo+@@@@@Oo@+X+o",
"@@+.o++@+O@@X+@@+Xo@@@@@@Oo@OX+o",
"@++.o@O@+O@@@@@@+XO@@@@@@OO@OX+o",
"@++Xo+O@+O+@X@@+@oO@@@@@+OO@Oo+o",
"+++Xo+O@+O+@O@@@+oO@@@@@+OO@oo+o",
"@++XX+O@O++@@@@@+oO@@@+@+OO@oo@o",
"@++XX+O@OO+@@@@++OO@@@@@++O@Xo@o",
"@++oX+O@+O++@@@@+OO@@@@@++O@XO+o",
"@++oX+O@O++++@@@+O@@@@@@+++@XO@o",
"+++oX+O@OO++@@@@+OO@@@@@+++@XO+o",
"@@+oX++@OOO+@@@@+O+@@@@@+@+@.O+o",
"@++oX++@OO++@@@@+++@@@@@+@@@.O@o",
"@++oX++@+O++@@@@+@+@@@@@+@@@.OOo",
"@@+oX++@+O+OO@@@OO++@@@@+@@@ OOo",
"@@OoXO@@@O+O+@@+O+++@@@@+@@@ +Oo",
"@@OoXO@@@O++@@@OO+@++@@@+@@@.+Oo",
"@@OooO@@@OO@@@@Oo@@++@@@@@@@.+oo",
"@@OOoO@@@OO@@@@Oo+@++@@@@@@+.+oo",
"++OOoo@+@OOO@@+Oo+@++@@@@@@+ +oo",
"++XOOo@+@OOO@@+Oo+@++@@@@@@+ +oO",
"O@OOOo@+@oO@@@++o+@++@@@@@@O.+oO",
"O@O+Oo@+@OOO@+++o+@++@@@@@@O.+oO",
"@@O++o@+@OO@@++@o+@++@@@@@+O.+XO",
"O+o++o@+@+o@@++@o+@++@@@@@+O.@XO",
"++o@+X@+@+o@+@+@o+@O+@@@@@+o.@XO",
"+@o@+X@+@+oO@@+@XO@OO@@@@@+o.@Xo",
"O@o@+o@+@@oO@@++XO@OO+@@@@OoX@Xo",
"O+o@Oo@+@@oo@@+@o+@+O+@@@@OoX@XO",
"@+O@Oo@+@@oo@@+@o@@+OO@@@@OoX@XO",
"@+o@OO+@@@oo@@O@o@@+OO@@@@OoX@XO",
"@@o@O++@@@oo+@O@o@@+OO@@@@OoX@XO",
"@+o@O@O@@@ooO+++o@@+OO@@@@OoX+XO",
"@@o@o@O@@@OoO+@Oo@@@Oo@@@@Ooo+XO",
"@+o@o@O@@@OXO@@Oo@@@Oo@@@@Ooo+XO",
"++o@X@o@@@OXO@+Oo@@@Oo@@@@Ooo+XO",
"@+X@o@o@@@+oO@@OO@@+OX@@@@OXOOX+",
"++X@o@o@@@+oo@+OO@@@oX@@@@OXOOX+",
"++X@o@o@@@+oo@+OO@@+oX@@@@OXOOX+",
"@+X@o@X@@@@oo@@+O@@+oX@@@+OX+OX+",
"@+X@o+X@@@@oo@@@O@@+oX@@@OOX+oX+",
"@+X@o+X@@@@oo@+@+@@+oX@@@OOX+oX+",
"@+o@O+X@@@@oO@+@O@@+oX@@@OOX+oX+",
"@@o@O+X+@@@oO@+@O@@+oX@@@oOX@oo+",
"O@o@O+o+@@@oO@+@O@@+oX@@@oOX@Xo+",
"O@o@O+oO@@@oO@+@O@@+oX@@@oOX@XoO",
"O+o@O+oO@@@O+@+@O@@+oX@@@oOX@XoO"
};
