/* XPM */
static char *out[] = {
/* columns rows colors chars-per-pixel */
"32 256 7 1 ",
"  c #4F0000",
". c #570000",
"X c #5F0000",
"o c #670000",
"O c #6F0000",
"+ c #770000",
"@ c #7F0000",
/* pixels */
"o@+OOo+@@@@@@+OOO+OOX@@@@+oo@oo@",
"o@+OOo+@@@@@@@OO+@OOX@@@@+oO@oo@",
"O@+o+o@@@@@@@@OO++OoX@@@@OXO@oo@",
"O@@oOO@@@@@@@+OO++OoX@@@@OX+@oo@",
"O@@o+O@@@@@@@+OOO+ooo@@@+OX+@XO@",
"O@@X+O@@@@@@@@OOO+ooo@@@+OX+@XO+",
"O@@X+O@@@@@@++OOO+ooo@@@+OX@@XO+",
"O@@X+O@@@@@@@+OOO+XoO@@@+oX@@XO+",
"@@@X+o@@@@@@@+O+O+XoO@@@@oX@@XO+",
"@@@X+o@@@@@@O+O+++ooo@@@@oX@@XO+",
"@@@X+O@@@@@@++OO++ooo@@@@oX@@XOO",
"@@@.+O@@@@@@++OOOOooO@@@@oX@@XOO",
"@+@.+O@@@@@@@OO+OOoOO@@@@Xo@@X+O",
"+@@.+O@@@@@@OOO+OOoOO@@@@Xo@@X+O",
"+O@.OO@@+@@@+OO+OOoO+@@@@Xo@@X+O",
"+O@.O+@@+@@@@OO+OOoO+@@@@Xo@@X+O",
"++@.O+@@+@@@@OoOOOoO+@@+@XO@@X+O",
"++@.O+@@+@@@@OOOOOoO+@@+@XO@@X+O",
"++@.o+@@+@@@@+OOO+oO@@@+@oO@@X+O",
"@+@.o@@@O@@@@+OOO+oO@@@++XO@+X+O",
"@O@.o@@@O@@@@+OOOOOO@@@++oO@+X@O",
"@+@XX@@@O@@@@+OO++OO@@@@+o+@Oo@o",
"@O@XX@@@O@@@@+OO++O+@@@++o+@Oo@o",
"@O@XX@@@o@@@@OOO++O+@@@@+o+@Oo@o",
"@+@XX@@@o@@@@+OO+++@@@@@Oo+@OO@o",
"@+@X.@@@o@@@@+OO@++@+@@@Oo+@OO+o",
"@O@X.@@@o@@@@+OO@++@+@@@Oo+@oO@o",
"@O@X.@@@o@@@@+O@@+@@+@@@Oo+@oO+o",
"@O@X.@@@o@@@@+++@+@++@@@Oo+@o++o",
"@O@X.@@@o@@@@++@@@@++@@@Oo@@o++o",
"@O@X.@@@o@@@@+O@@@@+O@@@Oo@@o+@o",
"@O@o.@@@o+@@@+O@+@@OO@@@Oo@@o++O",
"@O@o.@@@oO@@@+O@+@@OO@@@Oo@+o@@O",
"@o@o.@@@OO@@@+O@+@+OO@@@Oo@+o@OO",
"@O@oX@@@Oo@@@OO@+@+OO+@@+O@Oo@Oo",
"@O@oX+@@Oo@@@OO@+@+O++@@OO@Oo@Oo",
"@O@oX+@@OX@@@OO@+@+O++@@OO@Oo@Oo",
"@O+oX+@@+X@@@O+@+@OO+@@@OO@Oo@oo",
"@OOoXO@@+X@@@OO++@OO+@@@OO@Oo@oo",
"@OOOXO@@+X+@@OO++@OO+@@@O+@Oo@oO",
"@oOOXO@@+X+@@Oo+O@OO+@@@O@@Oo@oo",
"+oOOXo@@Oo+@@OO+O@OO+@@@@@@oo@oo",
"+oOOXo@@OoO@@OO+O+OO+@@@@@+Oo@oo",
"@OOOXo@@OoO@@OO++@OO+O@@@@+oo@XO",
"@OOOXo@@OOO@@OO++++O+@@@+@+Oo@XO",
"+OOOXo@@OOO@@OO@+++O+O@@+@OOO@XO",
"+OOOXo@@OOO@@OO+++OOOX@@+@OoO@XO",
"+OOOXo@@+O@@@OO++++OOO@@+@OOO@XO",
"+Oo@Xo@@+O+@@OO++++OOX@@@@oOO@XO",
"+Oo@Xo@@+O@@@O+++++O+o@@@@oO+@XO",
"++o@.o@@+O+@+O+++++OOX@@@@oO+@XO",
"+@o@.o@@@OO@Oo+@+++OOO@@@@oo+@XO",
"+@o@.o@@+OO@OO+@@+OOOO@@@@oo+@XO",
"O+o+.o@@+O++OO@@++OOO@@@@@oo++XO",
"O+o@.o@@+O@@OO+@@+OOOO@@@@oo++X+",
"@+o@Xo@@@O+@OO+@@+OOOO@@@@oo@OX+",
"@@o@Xo@@@O+@@O+@+++OOO@@@@oo@OXO",
"O@o@Xo@@@O+@@O@@+++O+O@@@@oo@OXO",
"O@o+XO@@@OO@+O@@++OO+@@@@@oo@OX+",
"O@o@oo@@@OO@+O+@+++O+O@@@@oo@oX+",
"O@o+oo@@@OO@OO+@@++++O@@@+oo@oX+",
"O@o+oo@@@OO+OO+@@++++O@@@Ooo@oX+",
"o@o+oo@@@OOOOO+@+O++OO@@@Ooo@oX+",
"o@o+Oo@@@+OOOO@@+O++OO@@@Ooo@oX+",
"O@o+Oo@@@+OOOO@@+O++Oo@@@Ooo@oX+",
"O@o+OX@@@+OOOO@@++O+OO@@@Ooo@oXO",
"O@o@OX@@@@OOOO@@++OOOO@@@Ooo@XoO",
"O@o+OX@@@+OoOO@@@+O+OO@@@+oo@XoO",
"+@o@+X@@@@OO@O@@++O+OO@@@+oO@XoO",
"+@o@+X@@@@OoOO@@+@OOOO@@@+oO@XoO",
"O@o@+.@@@@+o+O@@+@oOOO@@@+oO@XoO",
"O@oO+.@@@@+O@O@@+@oOo@@@@+X+@.Oo",
"O@oO+.@@@@+@OO@@O@o+o@@@++X+@.Oo",
"O@oO+.@@+@@OOO@@O+o+o@@@++X+@.Oo",
"+@OO+X@@+@@OOO@@O+o+O@@@+@X+@.Oo",
"+@OO+X@@+@@OXO@@++o+O@@@+@X@@.@o",
"+@Oo+X+@++@OOO@@+OoOO@@@+@.@@XOo",
"+@Oo+X+@++@OXO@@+OoO+@@@+@X@+XOo",
"+@Oo+oO@++@XOO@@+OXO+@@@+@X@+XOX",
"+@ooOoO@+O@@OO@@+OXO@@@@+@X@+XOX",
"+@OoOoo@@O@@OO@@+OXO@@@+@@X@OXOX",
"+@Oo+oo@+O@@OO@@+OXO@@@+@@o@OX+X",
"+@OoOOo@@O@@+O@@+OoO@@@+@+o@OX+X",
"+@OXOOo@@O@@@+@@+OO+@@@O@+o@oXOX",
"@+OoOOX@@o@@@+@@+OO+@@@O@Oo@oX@o",
"@++oO+X@@o+@@+@@+OOO@@@O@OO@oX@o",
"@++oO+X@@o+@@+@@+OOO@@@+@OO@oX@o",
"@++oO@X@@o+@@@@@+OO+@@++@OO@XX+o",
"@++XO+o@@X+@@@@@+OO+@@+@@o+@Xo@o",
"+++XO+o@@oO+@@@@+OO+@@+@@o+@Xo@o",
"@+@XO+o@@oO+@@@@++O+@@@@@o@@Xo+o",
"@+@XOOO@@oo@@@@@++O+@@@@@o@@Xo+o",
"@+@XOOO@@oo@@@@@++O+@@+@@O@+.o+o",
"@+@XOOO@@oo@@@@@++OO@@@@@O@+.o+o",
"@@@XOO+@@oo+@@@@+++O@@@@@O@+.o+o",
"@@@XOO+@@OoO@+@@+++O@@@@@O@+.o+o",
"@@@XOo+@@Oo+@@@@+++O+@@@@@@O.O+O",
"@@@.Oo+@@+X+@@@+++@O@@@@+@@OXO+O",
"@@@XOo+@@+o+@@@++@@O@@@@+@@OXOOO",
"@+@XOo+@@+oO@@@+++@O+@@@+@@OXOOO",
"@+@X+o++@+oO@@@+O+@OO@@@+@@o.OOO",
"@+@XOo++@+oo@+@+O+@OO@@@+@@o.OOO",
"@@@XOO@+@+oo@+@@O+@OO@@@+@@o.OOO",
"@@@XOo@@@+oX@+@@O+@oO@@@+@@o.+OO",
"+@@oOo@@@+OX+O@@O+@oO@@@+@+o.+o+",
"++@oOo@@@@OX+O@@O+@oo@@@+@+oX+o+",
"+++oOo@@@@Oo++@@O@+oo@@@+@+oX+o+",
"+++OOo@@@@+XO+@@O++XO@@@+@OoX+oO",
"+++OOo+@@@+oOO@+O+@oo@@@@@OoX+oO",
"+OO+Oo+@@@+oo+++O+@oO@@@+@OoX+X+",
"++O+OoO@@@+oO++@O@@oO@@@@@ooX+X+",
"++O@OOO@+@@oO++@O@@oO@@@@@ooX+X+",
"++O+O+o@+@+oo++@O@@OO@@@@@ooX+o+",
"++O@O@O@@@+ooO++O+@OO@@@@@ooX+o+",
"++O@o@O@@@+OOO++o@@++@@@@@ooX+o+",
"++O@X@O@+@+XO++Oo@+++@@@@@ooX+o+",
"O+o@X@O@+@+O@OOOo@++++@@@@XoX+o+",
"O@o@X@O@@@+OOO+Oo+++++@@@@XoXOo+",
"O@o@X@O@@@+@OO+Oo++@+@@@@@ooXOo@",
"O+X@X@O@@@+O@O+Oo@++O@@@@+ooooo@",
"O+X@.+o@@@+OO+++o+++OO@@@OooooO@",
"O+X@XOo@@@+OO+O+o+@+OO@@@oOoooO@",
"o+.@XOo@@@@OO+OOo@@OOO@@@oOooXO+",
"o@.@XOo@@@@O++++o@@+oX@@@oOooXO+",
"o@.@XOo+@@@O++++o@++oO@@@oOooX@+",
"o@.@oOO+@@@O++O+o@++oO@@@XOooX@+",
"o@.@o+O+@@@O++++O@++o@@@@X+Xo.@+",
"o@.@oOO+@@@O+@O+o@+Oo@@@@X+Xo.O+",
"o@.+oOOO@@@O@@++o@+Oo@@@@X@XO.@+",
"o@.+OOOO@@@O@+++o@+Oo@@@@X@XO.++",
"o@.++OOO@@@@O+++O@+Oo@@@@X@XO.++",
"o+.+@OOO@@@@O+++O@+Oo@@@+X@XO @O",
"o@.+@OOO@@@@@O++O@@Oo@@@+X+XO +O",
"o+.+@OOO@@@@OO++O@+OO@@@+o+XO ++",
"o@.+@OOO@@@@OO++O@@OO@@@Oo@XO +O",
"o+.O@oOO@@@@@O++O@@Oo@@@Oo+XO @O",
"o+XO@oOO@@@@@O++O@+Oo@@@Oo+XO +O",
"o@XO@OOO@@@@@o++O@+OO@@@OO+oO @O",
"o+Xo@OOO@@@@Oo++O@+OO@@@OO+oO @O",
"o+Xo@OOO@@@@@o++O@++O@@@oOOOO @O",
"o+XX@+OO@@@@@o++O@++O@@@oOOXO @O",
"o+XX@+OO@@@@@oO+O@O+O@@@o+OOO @O",
"O@o.@+OO@@@@+OO++@O+O@@@o@o+o.@O",
"O@o.@@OO@@@@@OO++@++O@@@o+o+o.@O",
"O+o.@@OO@@@@@OO++@++O@@@o@o+o.+O",
"@+o.+@OO@@@@@OOO@@++O@@@O+o@oX@O",
"@+o.+@OO@@@@+OO+@@O++@@@O+o@XX+O",
"@+o.+@OO@@@@@OO+@@O++@@++Oo@XX@O",
"@+o.+@OO@@@@@OO+@@O++@@++Oo@Xo+O",
"@+o.+@+o@@@@@+++@@O+@@++@Oo@Xo@O",
"@+o.+@+o@@@@@+++@@o+@+++@Oo@.o@O",
"@+O.O@+o@@@@@O++@@o@@+++@oO@.o+O",
"@+O.O@@o@@@@@O++@@O+@+++@oO@.O@O",
"@O+.O@@X@@@@@O+@@@O@@+O+@oO@.O+O",
"@O+ o@@X@@@@@O+@@@O+++O+@oO@.O@O",
"@O+ X@@X@@@@@++@@@O+++O+@oO@ O++",
"@O@ X@@X@@@@@O+@@@O+++o+@oO@.++O",
"@O@ X@@X+@@@@O+++@O@+Oo@@oO@.+++",
"@O@.X@@X+@@@@O+@+@O@+Oo+@oo+.+++",
"@O@.X@@X+@@@@++@+@o@+Oo@@Oo+.+++",
"@O@.X@@XO@@@@++@+@O@+Oo@@OO+.+++",
"@O@..@@oO@@@@++++@O++oo@@OOO.+++",
"@oO..@@Xo@@@@O+++@O++oo@@+OO.+++",
"@oOX.@@oo@@@@O++@+O++oo@++Oo.+O+",
"@o+X +@oo@@@@O++@+O@+oo@+@Oo.+O+",
"+o+X +@oo@@@@O++@OO@+oo@+@Oo.+O+",
"@o+o.O@Oo@@@@OO+@OO@+oo@+@@X.+O@",
"+O+o.O@Xo@@@@OO+@Oo@+oo@+@OX.+O@",
"@O+o.O@Oo@@@@OoO@Oo@+oO@+@+X.@O@",
"+O+o.O@@o@@@@OoO@Oo++oO++@+XX+O@",
"+O+O.O@+o@@@@OOO@Oo++oO++@+XX+o@",
"+O+O.O@@o@@@@OoO@OO+OoO++@OXX+o@",
"+OOO.o@@o@@@@OOO@Oo++oOO+@O.X+o@",
"@@O+.o@@O@@@@OOO@Oo+OoOO+@O.o@oO",
"@OO+.o@@O@@@+O+O@oo++oOO@@O.o+oO",
"@@o+.o@@+@@@OO+O@oo++ooO@@o.o+O+",
"+@o+.o@@+@@@@O+O@oo++ooO@@o.o+O@",
"@@o+.O@@@@@@+O+O@oo++ooO@@o.O+O@",
"@@o+.O@@@@@@+o+O@oo++oXO@@XXO+o+",
"@@o+.O@@@@@@@o+O@oo++oXO@@oXO+O+",
"++o+.O@@@@@@@oOO@oX++oXO@@XXO+O@",
"++X+.O@@@@@@@oOO@oX++oXO@@XX++O@",
"++X@.O@@@@@@@oOO+oX++oXO@@XX++O@",
"++X+.O@@@@@@@oOo+oX++oXO@@XX+OO@",
"@+X+.O@@@@@@@OOo+oXO+oo+@@oX+O+@",
"@+X+.O@@@@@@@OOoOooO+oo+@@oX+O@@",
"@@X+.O@@@@@@@OOoOooOOXo+@@oX+O@@",
"@+X+.+@@@@@@@oOoOooOOXo+@@oX@o+@",
"++X@XO@@@@@@@oOO+oX+OXO@@+oX@o+@",
"@+X+XO@@@@@@@oOO+oX+OXO@@@oX@o+@",
"++o@XO@@@@@@@OOO+oX+OoO@@@oX@o+@",
"@+o+XO@@@@@@@OOo+oX+OXO@@@oX@o+@",
"@+oOXO@@@@@@@OOoOoX+OXO@@@oX@X@@",
"@+oOXO@@@@@@@OOOOoXOOoO@@@oX@X@@",
"@+oooO@@@@@@@OOO+oXOOoO@@+XX@X@+",
"@+oOoo@@@@@@@+OOOXXOOoO@@@Xo@X@+",
"@+oooo@@@@@@@+OOOXXOOoO@@@Xo@X@+",
"@+Oooo@@@@@@@+OO+XXO+oO@@@Xo@X@O",
"@+OoOo@@@@@@@@OO+XXO+o+@@@XO@X@O",
"@+OoOo@@@@@@@@OO+XXO+o+@@@XO@X@O",
"@+OXOo@@@@@@@@OO+XXO+o+@@@.O@X@O",
"@@OXOX@@@@@@@@OO+XXO+o@@+@.O@X@O",
"@+OX+X@@@@@@@@+O+XXO+O@@+@.+@X@O",
"@+OX+X@@@@@@@@+O+XXO+@@@+@.+@X@O",
"@+O.+o@@+@@@@@+O+XX++@@@+@.@@X@O",
"@+O.+o@@+@@@@@OO+XX++@@@@@.@@o@O",
"@+OX+o@@+@@@@++++XX+@@@@@@.@@o@O",
"@+OX+o@@+@@@@++++Xo+@@@@@@.@@o@O",
"@+OX+o@@+@@@@++++oo+@@@@@@.@@o@O",
"@+OXOO@@+@@@@++O+oo@@@@@@+.@+o@O",
"@+OXOO@@O@@@@O+O+oo+@@@@@+.@+O@O",
"@@OXoO@@+@@@@+OO+oO@@@@@@+.@OO@O",
"@@OXo@@@+@@@@+OO+oO@@@@+@O.@OO@O",
"@@OXo++@+@@@@+OO+oO@@@+@@OX@OO@O",
"@@OXX@+@@@@@@++O+OO@@@+@@OX@oO@O",
"@@OoX++@@+@@@+OO+OO@@@+@@oo@oO@O",
"@@OoX@+@@+@@@OOO+@O@@@+@@oo@XO@O",
"@@OoX@+@@+@@@+OO@+O@@@+@@oo@X+@O",
"@@OoX@+@@@@@@+OO++@@@@+@@oO@X+@O",
"@@OoX@+@@@@@@+OO+++@@@O@@oO@X+@O",
"@@OO.@@@@@@@@@OO+@+@+@O@+o+@X+@O",
"@@oO.@@@@@@@@@OO+++@+@+@+o+@.+@O",
"@@oX.+@@@@@@@++oO@+@@@+@+o+@.+@O",
"@@oO.@@@@@@@@++O++++@@@@Oo+@.@+O",
"@@oOX+@@@@@@@++O+@+++@@@OO+@.@+O",
"@@oOX+@@@@@@@++OO@+++@@@O@+@.@+O",
"@+oOXO@+@@+@@+++O@O++@@@o@+@.@@O",
"@@oOXO@+@@+@@++@O@O++@@@o@+@.@+O",
"@@X+XO@+@@@@@++@@@O++@@@o@+@.@+O",
"@@X+Xo@+@@@@@O++O@O++@@Oo@@+.@+O",
"@@X+Xo@+@@@@@OO+O@O++@@@o@++.@OO",
"@@X@oo@@@@@@@O++O+O++@@@o@+O.@O+",
"@@X+oX@@@@@@@+++X+O++@@OO@+O.@O+",
"@+X@oX@@@@@@@+++O+O++@@OO@+O.@O+",
"@+X@oX@@+@@@@+++O+O++@@oO@+OX@O+",
"+@X@oX@@+@@@++++O+O++@@oO@+oX@OO",
"@@X@O.@@+@@@@O++@+O+++@o+@+oX@OO",
"++X+O.@@+@@@@O++OOO++O@o+@OoX@o+",
"@+X@O.@@+@@@+O+OO+O++O@o+@Ooo@o+",
"@+X@O.@@+@@@+O+++@O++O@o@@Ooo@o+",
"@@X@oX@@+@@@+O@++@O++O@o@@Ooo@o+",
"@+.@oX@@+@@@@O@+O@O++O@o@@OXo@o+",
"+@.@oX@@@@@@+O@+O@O++O@O@@OXO@o+",
"+@.@oX@@@@@@+O@+O@O++o@o@@OXO@o+",
"+@.@oX@@@@@@+++++@O++o+o@@OXO@o+",
"@@.@oo@@@@@@++++++O+Oo@O@@OX+@o+",
"+@.@oo@@@@@@++++++O+Oo@O@@OX+@o+",
"+@.@oo@@@@@@+O+@+@O+OO@+@@OX@@o+",
"@@X@oo+@@@@@@O+@@@O+OO@+@@OX@+o+",
"@@X@oo+@@@@@@O++@+O+OO@+@+OX@+o+",
"+@X@Oo+@@@@@@O+O++O+OO@@@+oX@+o@",
"@@o@OO+@@@@@@O++++O+O@@@@+oX@Oo@",
"O@o+OOO@@@@@@OO+@@O+oO@@@+oX@Oo@",
"O@O+OoO@@@@@@OO+++O+oO@@@OoX@Oo@",
"o@O@Oo+@@@@@@+O+O+O+oO@@@Ooo@oo@",
"o@+@Oo+@@@@@@+OOO+O+X+@@@+oo@oo@"
};
