/* XPM */
static char *out[] = {
/* columns rows colors chars-per-pixel */
"32 256 7 1 ",
"  c #4F0000",
". c #570000",
"X c #5F0000",
"o c #670000",
"O c #6F0000",
"+ c #770000",
"@ c #7F0000",
/* pixels */
"@o+OXO@@@@@@@@O++@++OoO@Oo@+X@+O",
"@oO@XO@@@@@@@@O+@@O+OO+@OO@+.@+O",
"@OOOXO@@@@@@@@OO+@OOo@+@OO@+.@+O",
"@O+OXO@@@@@@@@OO+@O+O++@OO@+X@+O",
"@O+OXO@@@@@@@@OO++O++++@O+@+X@OO",
"@O+OXO@@@@@@@@OO++o++@O@O+@OX@OO",
"@O+OXo@@@@@@@@OO++o++@O@O+@OX@O+",
"@O+OXo@@@@@@@@OO++oO+@O@O+@OX@OO",
"@++OXX@@@@@@@@+O+@oO+@O+O@+OX@O+",
"@+OOoX@@+@@@@@OO++o++@O+O@+OX@OO",
"@@OOoX@@+@@@@@++@@o+@@O+O@+OX@OO",
"@@OOoX@@+@@@@+OO@+o+@@OOO@+oX@OO",
"@@oOoX@@+@@@@@OO@+o+@@+OO@Ooo@OO",
"@@oOo.@@+@@@@+OO++O+@@+O+@Ooo@OO",
"@@oOo.@@+@@@+OOO++o+@@+O+@OXo@OO",
"@@XOoX@@+@@@+OOO+@o+@@+O+@OXo@OO",
"@@XOXX@@+@@@@oOO++O+@@+O@@OXO@O+",
"@@XOoX@@+@@@@O+O++O@@@+O@@oXO@O+",
"@@XOoX@@@@@@@OOo+@O@@@+O@@oX+@O+",
"@@XOXX@@@+@@@OOo++O+@@OO@@oX@@O+",
"@@XOXX@@@+@@@OOo+@O+@@OO@@oX@@O+",
"@@XOXX@@@+@@@OOo++O++@OO@@oX@@O+",
"@@XOXo@@@O@@@o+o@+O+@@O+@@oX@@O+",
"@@.OXo@@@O@@@oOo@@O++@O+@@oX@@O@",
"@@.Ooo+@@O+@@oOO@@O++@O+@@XX@@O@",
"@@.OXo+@@++@@oOo@+O+++O+@@XX@@+@",
"@@.Ooo+@@@+@@oOo++O+++O@@+XX@++@",
"@@XOoo+@@@+@@oOO+@O+++O@@OXX@++@",
"@@XOoO+@@@+@@oOO@@O+++O@@OXX@++@",
"@@.OoO+@@@+@@OOO+@O+++O@@OXX@++@",
"@@XOoO+@@@+@@OOO++OOO++@@OXX@O@@",
"@@XOoO+@@@+@@OOO++OOO@+@@oXo@O+@",
"@@XOoO+@@@+@@OOO+@OOO@+@@o.o@O@@",
"@@XoOO+@@@+@@OOOO@OOO@+@@oXo@O+@",
"@@ooOO+@@@+@@OO++@OoO@@@@o.o@O@@",
"@@oo+O+@@@+@@O+@+@OoO@@@@o.O@o@+",
"@@oo+O+@@@+@@OO@++Ooo@@@Oo.O@O@+",
"@@oX+o+@@@@@@Oo+O+Ooo@@@Oo.O@o@+",
"@@oX@o@@@@@@@OO+O@ooo@@@Oo.+@o++",
"@@oX@o@@@@@@@OOOO+ooO@@@Oo.+@o@+",
"@@oX@o@@@@@@@OO+O+ooO@@@Oo.+@o@+",
"++OX@o@@@@@@@O+OOOooO@@@@o.@@o@O",
"++O.+o@@@@@@@O+OOOooO@@@@o.@@o@O",
"+@O.@o@@@@@@@O+OOOooO@@@@oX@@o@O",
"@+O.+o@@@@@@@OOO+OooO@@@@oX@@o@O",
"@OO.+o@@@@@@@OO++OooO@@@+oX@@o@O",
"+O+.+o@@@@@@+O+O+OooO@@@+oX@@o@O",
"+O+.+O@@@@@@+O+OOOoOO@@@+XX@@o@O",
"+O+.+O@@@@@@+O@++OOOO@@@+Xo@+X@O",
"+O+.OO@@@@@@@O@O+OOO+@@@@Xo@+X@O",
"@++.O+@@@@@@+O@++OOO+@@@+Xo@+o@O",
"@@@.o+@@@@@@@O@++OOO+@@@+Xo@Oo@O",
"@@@.o+@@@@@@@++++OOO@@@@OXO@Oo@O",
"@@@.X+@@+@@@@@+@+OOO@@@@OXO@oo@O",
"@@@XX+@@@@@@@++@+OOO@@@@OXO@oo@O",
"@@@XX@@@@@@@@++@++O+@@@@ooO@oo@O",
"@@@XX@@@+@@@@+@@++O+@@@@oo+@oo@O",
"@@@XX@@@+@@@@@+@@+O+@@@@oo+@oo@O",
"@+@XX@@@+@@@@+@+++++@@@@oO+@oo+O",
"@+@XX@@@+@@@@+@+++++@@@@oO+@Xo++",
"@O@XX@@@+@@@@+@+++++@@@+oO+@XO@+",
"+O@oX@@@+@@@@+@@+@+++@@+oO@@XOO+",
"@O@oX@@@+@@@@+@@+@+O+@@+OO@@XOX+",
"++@o.@@@+@@@@+@@+@+O+@@+O+@+X+O+",
"++@o.@@@@@@@@+@++@+O+@@+O+@+X+OO",
"@O@o.@@@+@@@@+@++++O+@@+O+@OX+oO",
"@O@o.+@@+@@@@+++++OO+@@OO+@OX+oO",
"@O@o.+@@@@@@@+++++OOO@@OO+@OX@oO",
"@O@O.O@@@@@@@+++O@OOO@@O++@OX@oO",
"@O@X.O@@@@@@@++OO@oOO@@O+@@Oo@XO",
"+O@O.o@@@@@@@+O+O@oOO@@O+@@Oo@oO",
"@O@O.o@@@@@@@+O+O@oOO@@O+@@oX@XO",
"@+@O.o@@@@@@@+O+O@oOO@@O+@@oo@XO",
"@+@O.o@@@@@@@+++O+oOO@@O+@@oo@XO",
"@+@O.o@@@@@@@+++++oOO@@+@@+oo@XO",
"@+@+.o@@@@@@@@++OOOOO@@+@@+oo@XO",
"@+@+.o@@@@@@@++@OOOOO@@+@@+oo@XO",
"@++@.o@@@@@@@++@++OOO@@+@@Ooo@XO",
"@++@.o@@+@@@+++@O+OOO@@+@@OoO@XO",
"@@++.o@@@@@@+@+@O+OOO@@+@@OoO@XO",
"@+O@.o@@@@+@@@+@O+OOO@@+@@OoO+XO",
"@+O@.o@@+@+@@++@O+OOO@@+@@OoO+XO",
"@@O@.o@@+@@@++++O++OO@@+@@OoO+X+",
"@+O@.o@@+@@@+++@O++OO@@+@@OoOOX+",
"@+O@.o@@+@@@++++++OOO@@+@@OoOOX+",
"@@O@.o@@+@@@+O++++OOO@++@@Oo+OX+",
"@@O@.o@@+@@@OO+++++Oo@++@@Oo@oXO",
"@@O@.o@@+@@@OO+++++Oo@+@@@Oo@oX+",
"@@O@Xo@@@@@@@O+++++Oo@+@@@Oo@Oo+",
"@@O@Xo@@@@@@@O+@@++Oo@+@@+OX@oo+",
"@@O@Xo@@@@@@+O+@@++Oo@@@@+Oo@oo+",
"@@o@Xo@@@@@@+O+@@++Oo@@@@+Oo@oo+",
"@@o@oX@@@@@@+O+@@++oo@@@@O+X@oo+",
"@@o@oX@@@@@@+O+@@++oo@@@@+OX@XO+",
"@@o+OX@@@@@@+O+@+++oo+@@@@Oo@XO+",
"@@O@OX@@@@@@+O+@+++oo@@@@@Oo@XO+",
"@@O+OX@@@@@@@O+@+++oo+@@@@Oo@XO+",
"+@o@OX@@@@@@@O+@+@OooO@@@@Oo@XO+",
"O@o@OX@@@+@@@o+@+@OoO+@@@@Oo@X++",
"@@oO+X@@@+@@@o+@@@OoO+@@@@OO@X++",
"@@oO+X@@@+@@@o@@+@Ooo@@@@@OO@X++",
"+@oO+X@@++@@@o@@+@Ooo@@@@@oO+.@O",
"+@oo+X@@+@@@@o+@+@Ooo+@@+@oO+.@O",
"+@oo+X@@++@@@oO++@Ooo+@@+@o++X+O",
"+@oo+X@@O+@@@oO+++ooO@@@+@X++X@O",
"O@oo+X@@o+@@@oOOO+oXo@@@O@X+@X@O",
"O+oo@X@@o+@@@oOOO+ooO+@@O@X++X@O",
"O@oo@X@@o+@@@oOO++ooO@@@O@X++X@O",
"++oo@X@@o+@@@oOO++ooO@@@O@X@+X@o",
"++oo@X@@oO@@@oO+O+ooO@@@O@X@+X+o",
"++oo@o@@oO@@@oO+OOooO@@@O@X@+X@O",
"++oo@o+@oO@@@oO+OOXoO@@@+@X@+o@O",
"+@Oo@o+@oO@@@oO+OOoO+@@@+@X@+X@O",
"++Oo@O+@Oo@@@OO+OOoO+@@@++X@Oo@O",
"++OX@O@@Oo@@@OO+OOoO+@@@@Oo@Oo@o",
"++OX@O+@Oo@@@O++O+oO@@@+@Oo@oo@o",
"@++X+O+@Oo@@@O++O+oO@@@+@Oo@oo+o",
"+++X+++@OX@@@O++O+o+@@@+@Oo@oo@o",
"+@+XO++@+o@@@OO+++o+@@@+@oo@oo@o",
"+O+XO@+@+X@@@OO+++O@@@@@@oO@Xo@o",
"+++Xo@+@+X@@@OO@++O@@@@@@oO@Xo+o",
"+++Xo@+@@X+@@O+@++O@@@@@@o+@Xo@O",
"@O@Xo@@@@X+@@O+@+@+@@@@@@o++XO@O",
"+O+Xo@@@@XO@@++@+@+@+@@@@o@+XO@O",
"+O+Xo+@@@oO@@++@@@+@+@@@@o@+XO@O",
"+O+Xo+@@@oo@@++@@@+@+@+@@O@+XO@O",
"+O@Xo+@@@Oo+@++@@@@@+@+@@O@OXOOo",
"@O+.o+@@@OXO@++@@@+@O@@@+O@OX+Oo",
"@O+.X+@@@OXO@+@@@@+@O@@@+O@OX+Xo",
"@O@.oO@@@OXO@+@@@@+@OX@@+O@oX+OO",
"@O@XoO@@++XO++@@@@++O@@@++@oX+OO",
"+O@XoO@@++Xo+O@@@@+@OX@@++@oX+OO",
"@O@Xoo@@++oo@O@@@@+@OX@@+@@XX+oO",
"@O@Xoo@@++ooOO@@@@++Oo@@+@@oX+oO",
"@O@Xoo@@++oo@O@@@@++Oo@@+@@oX+oO",
"@O@ooo@@++oo@O@@@@++oO@@+@@oX+oO",
"+O+ooX@@++OOOO@@@@+@o@@@+@@oX+X+",
"+O@ooX@@OOOoOO@@@@O@o@@@+@@oX+XO",
"@O+oXX@@OOOooO@@@@O@o@@@@@+oX@XO",
"@O+oXX@@OOOooO@@@@O@o@@+@@+oX+XO",
"O+OoXo@@+OOoo+@@@+O+O@@+@@Ooo+XO",
"oOOoXo@@+OOoo+@@@+o+O@@+@@Ooo+XO",
"o+OXXo@@+OOOoO@@@+oO+@@@@@ooo@XO",
"o+Oo.o@@+oO+oO@@@+o++@@@@@oOo@Xo",
"o+oo.o@@+oO@oO@@@+XO@@@@@@oOo@XO",
"o+oo.o@@@o+@oO@@@+XO@@@@@@XOO+XO",
"o+oO.o@@@o+@oO@@++oO@@@@@@XOO+XO",
"o+oO.o+@@o+@O+@@+Oo+@@@@@@XOO+XO",
"o+XO.o+@@o+OX+@++Oo+@@+@@@X+O+XO",
"o+XO.o+@@X+OX+@++OoO@@+@@@XOO+XO",
"o@X@.o+@@o+OO+@+OOXO@@+@@@XO++oO",
"o@X@.o+@@XOOO+@++OXO@@O@@@X+++oO",
"o@X+.oO@@oO@O+@++OXO@@+@@@X+++oO",
"X@X+.o+@@oOO@+@+OOXO@@+@@OX++OoO",
"o@X@.o+@@oOO@+@+OOoO@@+@@OX+@OoO",
"X@X@Xo+@@oO@@+@@oOXO@@@@@OXO@OoO",
"X@XOXX+@@oOO@O@+oOXO@@@@@oXO@OOO",
"X@XOXX+@@OOO@O@+oOXO@@@@@ooO@oO+",
"X@X@oX+@@Oo@@O@+oOXO@@@@@oXO@oO+",
"o@X@oX+@@OOO+O@@ooXO@@@@@oXO@oO+",
"o@XOoX+@@+O@@+@OXooO@@@@@XoO@XO+",
"o@.@oXO@@+O+@+@OooOO+@@@@ooO@XO+",
"O@.@OX+@@@O+++@Ooo+O+@@@@ooO@XO+",
"O@.@O.O+@@OO@++Ooo+O+@@@@ooO@.O+",
"O@X+X.+@@@OO@++Ooo@OO@@@@ooO@.O+",
"o@X+@.O+@@OO@++Ooo@OO@@@@ooO@.O+",
"o@X+@.OO@@OO@OO+oo@OO@@@@ooO@.O+",
"O@X+@.O@@@+@@OO+Oo@OO@@@+OoO@.++",
"O@X+@.OO@@++@Oo+Oo+O+@@@+Oo+@.++",
"O@X+@XOo@@++@Oo+Oo+OO@@@+Oo+@.+O",
"O@oO@Xoo@@+++Oo@Oo+o+@@@+Oo+@.+O",
"O@oO@ooo@@++OOo+Oo+oO@@@+Oo+@.+O",
"O@oO@ooo@@+O+OOOOo+OO@@@++o++.+O",
"+@oO@oXo@@@OO+O+Oo@O+@@@O+X@+.+o",
"@@oO@OXo@@+OO+O+Oo@++@@@O+X@+.+o",
"@@XO@+.o@@+OO@O+Oo@++@@@++X@O.@O",
"@@oo@@.o@@+O@@O+Oo@++@@@++X@O.@O",
"@@Oo@@.X@@++OO+OOO@@+@@@+@X@o.@O",
"@@Oo@@.X@@+++++OOO@@@@@@++X@oX@o",
"@@OX+@.O@@OO@@+OXO+@@+@@@+o@oX@o",
"@@OXO@.O@@+@@@+OOO+@@+@@@+o@XX+O",
"@@OXO@.O+@+O@@@OOO+@@+@@@Oo@XX@O",
"@+OXO@.O+@@O@+@OOO+@@+@@@OO@.X+O",
"@+OXO@Xo+@+O@@@OOO@@@+@@@OO@.o@O",
"@+OXO@.o+@+O@@@+OO+@++@@@o@@.o@O",
"@+OXO@Xo+@@O@@@+OO@@++@@@o@@ o@O",
"@++Xo@Xo+@@O@@@+OO@+OO@@@o@@ o@O",
"@O+Xo@oo+@@O@@@+O+@@OO@@@o@@ oOO",
"+O+Xo@oo+@@O@@@++O+@+O@@@o@+ oOO",
"@O+Xo@oo+@@O@@@+OO+@+O@@@o@+ OOO",
"@O@Xo@Oo+@@X+@@@++@@+O@@@o@+ OOO",
"@O@XX@+o+@@X@@@@+++@+O@@@o@O OOO",
"@O@XX@+X+@@O@@@@+++@+o@@@O@O oOO",
"@O@XX@@o+@@@@@@@O++++o@@+O@o OoO",
"+O@XX@@o+@@+@@@@+@@++o@@+O@o OoO",
"+O@XX@@oO@@@O+@@+++++o+@OO@X +oO",
"@O@XX@@oO@@@@+@@+@+@+o+@O@@X +oo",
"@O@XX@@oO@@@@+@@++O@+o+@O@@X +oo",
"+O@XX@@OO@@@O+@@+++@+o+@O@@X.+oo",
"+O@XX@@OO@@@++@@+++@+X+@O@@X.+oO",
"+O@XX@@OO@@@+O+@++@@+X+@O@@..+oO",
"OO+XX@@+O@@@++@@++@@+X+@O@@..+oO",
"OO+oX@@+O@@@OO+@++@+OX@@O@@.X+oO",
"OO+oX@@+O@@@OO+@O+++Oo@@+@+.X+X+",
"OO+oo@@@O@@@oO+@++O@Oo+@+@+Xo+X+",
"OOOoo@@@O@@@oO+@++@@Oo+@+@OXo+X+",
"OOOoo@@@O@@@oO+@@+@@Oo+@+@OXo+X@",
"OOOOX@@@+@@@oO+@@+@@Oo+@+@OXo+X@",
"++OOX@@@+@@@oO+@@++@Oo+@+@oXO+X@",
"O+oOX+@@+@@@oO+@@+@+OO+@@@oXO+X@",
"O+oOX+@@O@@@oO+@@+@+OO+@@@oXO+o@",
"+@o+X@@@+@@@oOO@@+O+OX++@@oXOOo@",
"++o+X@@@+@@@XOO@@@++OO++@@oXOOo@",
"++X+X+@@@@@@OOO+@@++OOO+@@oX+Oo@",
"+@X+X@@@@@@@OOO+@@O+OOO+@@oX+Oo@",
"++X@X+@@@@@@XOO+@@O+OoO+@@oX+OO@",
"@+X@X+@@@@@@OOO+@@O+OoO+@@oX+OO@",
"@@X@X+@@@@@@XOO+@+O+OoO+@@oX+oO@",
"@+X@X+@@@@@@OOo+@+O+OoO+@@oX+oO@",
"++X@X+@@@@@@@OO+@+O+OoO@@@oX+oO@",
"@@X@X+@@@@@@@OO+@@O+ooO@@@oX+oO@",
"@+X@X+@@@@@@OOO++@O+ooO@@@oX+XO@",
"@+X@o+@+@@@@@OoO+@O+ooO@@@oX@XO@",
"@+X@oO@+@@@@OOOOO+O+ooO@@@oo+X+@",
"@@X@oO@O@@@@@OOOO+O+oo+@@@XoO.+@",
"@@X@OO@O@@@@+OOOO+O+oo+@@@Xo+.++",
"@+XOOo@O@@@@+OOoO@O+oo+@@@XO+.++",
"@@XOOo@o+@@@@OOoO+OOoO+@@@XO+.@+",
"@+XO+o@o+@@@@OOO@+OOoO+@@@XOO.@+",
"@+XO+o@oO@@@+OOO++oOOO+@@@XOO.@+",
"@+oO+o@oO@@@@+OOO+oOOO@@@@XOO.@+",
"@+oO@X@oO@@@@+OOO+oOOO@@@@X++.@+",
"@OoO@X@OO@@@@+OO@+oOOO@@@@X++.@O",
"@OoO@X@OO@@@@+OOOOoOOO@@@@.++.@O",
"@Ooo@X@Oo@@@++OOOOoOOO@@@@.++.@O",
"@OOo@X@+o@@@@+OOOOoOOO@@@@.+O.@O",
"@OOo@X@+o@@@@+OOOOoOOO@X+@.+O.@O",
"@OOo@o@@o@@@@OOOOOoO+O@o+@.+O.@O",
"@O+o@o@@o@@@@OOOOOoO+O@o+@.@O.@O",
"@O+o+o@@o@@@@OOOOOO++O@o@@.@oX@O",
"@O+o+O@@O@@@@OOOO@O++O@o@+.@oX@O",
"@O+o+O@@O@@@@OOOO@o++O@o@+X@oX@O",
"@OOoOO@@O@@@@OOOOOo++O+o@+X@oX@O",
"@OOoO+@@+@@@@O+OOOo+@O+o@+X@oX@O",
"@oOoO+@@+@@@@O+oO@O+@OOo@Oo@oo@O",
"@oOoo@@@+@@@@+OO+OO+@oOO@Oo@oo@O",
"@oOoo@+@@@@@@+OO+OO++oOO@oo@oo@O",
"@oOOo@+@@@@@@+OO+@O++oOO@oO@Xo@O",
"@o@OX@+@@+@@@+OO+OO++oO+@oO@Xo@O",
"@o@OX@+@@+@@@+++++O@+Xo+@XO@XO@O",
"@oOOX@+@@O@@@+O++++@+Xo+@o+@XO@O",
"@oOOX@@@@+@@@+O++++@+Xo@@X+@XO@O",
"@o+OX@@@@+@@@+O++@+@+oo@+X+@X+@O",
"@O+OX@@@@+@@@@O++++@OXo@+o+@X+@O",
"@O+OX@@@@+@@@@O++++@OXO@+o@@X+@O",
"@O+@X+@@@+@@@++++@++OXO@Oo@+X++O"
};
