/* XPM */
static char *out[] = {
/* columns rows colors chars-per-pixel */
"32 256 7 1 ",
"  c #4F0000",
". c #570000",
"X c #5F0000",
"o c #670000",
"O c #6F0000",
"+ c #770000",
"@ c #7F0000",
/* pixels */
"++o+O@oO@@@O@@++o@@+oo@@@oOo@.oO",
"@+O@O@oo@@@O+@++o@@+oo@@@oOo@.OO",
"@OO@O@Oo@@@@O@++o@@OXO@@@oOo@.OO",
"+OOO+@Oo@@@@O+++O@@Oo+@@+ooO@.OO",
"@+OO+@+X@@@+@+++o@+OO+@@+oOO@.OO",
"+O+o+@+X@@@@O+O+o@+OO@@@+ooO@.OO",
"@O+o+@+X@@@@++O+O@OOO@@@+Oo+@.OO",
"@O+o++@X@@@@@O++O@OOO@@@+oo+@.+O",
"@O+o@+@o+@@@+OO+O@OOO@@@+oo+@.+O",
"@O+o@+@o+@@@OO++O@+OO@@@+oo+@.+O",
"@O+X++@o+@@@OO++O@OOO@@@+oX+@.+O",
"@O@X++@oO@@@@O++O@OOO@@@+oX+@.+O",
"@O@X++@oO@@@OO++O@O+O@@@OoX@@.+o",
"@O@X+@@OO@@@OO++O@OOO@@@+oX@+.+O",
"@O@X+@@OO@@@OOO@+@OO+@@@+oX@+.+O",
"@O@XO@@+O@@@@OO+O@OO+@@@+oX@O.+O",
"@O@XO@@@o@@@@O+++@O++@@@+oX@O.+O",
"@O@XO@@+o@@@@O++@@O++@@@+oX@O.@O",
"@O@XO@@@o@@@@O++@@O+@@@++oo@OX@O",
"@O@Xo@@@O@@@@O++@@O+@@@+@oo@oX@O",
"@O@Xo@+@O@@@@O++@@O+@@@+@oo@oX@O",
"@O@XX@@@O@@@@O+@@@O+@@++@Xo@oX@O",
"@O+XX@+@+@@@@O++@@O+@@++@XO@XX@O",
"@O+XX@+@+@@@@O++@@O+@+++@XO@Xo@O",
"@O+XX@+@@@@@@O+@@@++@+++@XO@Xo@+",
"@O+X.@@@@@@@@O+@@@+@++O+@XO@.o@O",
"@O+X.@@+@@@@@O+@@@++++O@+X+@.O@+",
"@O+X.@@+@+@@@O+@@@++++O@+X+@.O@+",
"@O+o.@@+@@@@@++@@@++++O@+X++.O@+",
"@OOo.@@O@@@@@+O@@@++OOO@+X+@.O@+",
"@OOo.@@O@@@@@++@@@++OOO@+X@+.O@+",
"@OOo.@@O@@@@@+++@@+OOOO@+X@+.+@+",
"@OOO.@@O@@+@@++@@@+OOOO@OX@+.+@+",
"@OOO.@@o@@+@@+++@@++OOO@OX@O.+@+",
"@OOOX+@o@@+@@+++@@++OO+@Oo@O.@@+",
"@OOOX+@o@@+@@+++@@OOOO++oo@O.@++",
"@OOOXO@o+@+@@OO@@+OOO+++oO@o.@+O",
"@OOOXO@O+@+@@OO+@+OOO@++oO@o.@O+",
"@OoOoo@OO@@@@OO@@@OOO@++oO@o.@O+",
"@Oo+oo@+O@@@@OO+@+OO+@++o@@X.@O+",
"@OoOoo@+O@@@@OO+@+oO+@+Oo@@X.@O+",
"@Oo+oX@@o@@@@O+++@OO+@+Oo@@X.@OO",
"+Oo+oX@@o@@@@O++++OO+@+OO@+X.@O+",
"@+o+oX@@o@@@@OO+@@OO+@OOO@+X.@O+",
"@+o+oX@@o@@@@OO+@+O++@OoO@+X.@o+",
"@@o@oX@@o@@@+OOO@OOO+@OoO@+XX@o+",
"@@o+o.@@o@@@+OOO++OO+@Oo+@OXX@o+",
"@@X+o.@@o@@@OOOO++O++@Oo+@OXX@O+",
"@@X@oX@@O@@@OOOO@+O++@Oo@@OXX@O+",
"@@X@oX@@+@@@+OOO++++@Xoo@@OXo@O+",
"@@X@oX@@+@@@+oOO++++@Xoo@@OXO+O@",
"@@X+XX@@@@@@@oOO++++@OoO@@o.O+O@",
"+@X@XX@@@@@@@oOO++O++OoO@@o.O+O@",
"+@X+XX@@@+@@@OOO++O+@XXO@@o.++O@",
"@@X+Xo@@@+@@@OOO++OO+oX+@@o.++O@",
"@@.+oo@@@+@@@OOO++O++oX+@@o.+OO@",
"@@.+oo@@@@@@@OO+++O++oX+@@o.@OO@",
"+@.+oO@@@@@@@OO++OO+@oX+@@o.@OO@",
"+@.OoO@@@@@@@O++OOOO@oX+@@X.@OO@",
"+@XOoO@@@@@@@O++O+OO+oo@@@XX@OO@",
"+@X+OO@@@@@@@OO+++OO+oo@@@XX@oO@",
"+@XOOO@@@@@@@+O+++OOOXO@@+XX@oO@",
"+@XOOO@@@@@@@+++O+OOOoO@@+XX@oO@",
"O@oOOO@@@@@@@+++OOOOoXO@@+XX@o+@",
"O@ooOO@@@@@@@+++O+OOoo+@@+.X@o+@",
"+@ooOO@@@@@@@+++O+OOoo+@@+.X@o++",
"+@ooOO@@@@@@@@OOO+OooO@@@@.o@o@+",
"@@oo+O@@@@@@@@+OO+OooO@@@+.o@X++",
"@@oo+O@@@@@@@@OOO+oooO@@@+.O@X++",
"@@Oo+O@@@@@@@@OOO@oooO@@@+.O@.++",
"@@OX+o@@@@@@@@OOO@ooo+@@@+.+@.@O",
"+@OX+o@@@@@@@@OOO@Xoo@@@@O.+@.@O",
"@@OX+o@@@@@@@@+OOOXoO@@@@O.+@.@O",
"@@O.+o@@@@@@@@+OO+XoO@@@@O.@@.@O",
"@@+.+o@@@@@@@@+OOOXo+@@@@O.@@.@O",
"@@+.+O@@@@@@@@+OOOXo+@@@@O.@@.@o",
"@@+.+O@@@@@@@++O+OXo+@@@@O.@@X@o",
"@@O.OO@@@@@@@++O+Ooo+@@@@oX@@X@o",
"@@+.OO@@@@@@+O+OOOoo+@@@@oX@+X@o",
"@@+.OO@@@@@@+O+O+Ooo+@@@@oX@+X@o",
"@@+.OO@@@@@@@o+O+OoO+@@@+oo@+X@o",
"@@+.OO@@@@@@@o+OOOoO+@@@+oo@OX@o",
"@@+.oO@@@@@@@o+OOOoO+@@@+oo@Oo@o",
"@@+.o+@@@@@@@o+O+OoO+@@@+oO@Oo@o",
"@@+Xo@@@@@@@@O+O+OOO@@@@OoO@oo@o",
"@@+XX+@@@@@@@O+O+OO+@@@@OOO@oX@o",
"@@+XX+@@@@@@@o+OO+OO@@@@OOO@oo@o",
"@@+XX@@@@@@@@O+O++O+@@@@oOO@Xo@o",
"@@+XX+@@+@@@@O+O++O+@@@+oO+@Xo@O",
"@@+XX@@@@@@@@O++++O+@@@+oO+@Xo@O",
"@@+X.+@@+@@@@O+O+++++@@@oO+@.o@O",
"@@+X.@@@@@@@@++O+++++@@+oO@@.o@O",
"@@+o.O@@@@@@@O@O+@+O@@@+o+@@.O@O",
"@@@o.O@@+@@@@+@O+@+OO@@+o@@@.O@O",
"@@@o.O@@@@@@@O@++@+O+@@+o@@@.O@O",
"@@@o.O@@@@@@@O@+@@+O+@@Oo@@+.O@O",
"@+@o.O@@@@@@@O@O+@+O+@+Oo@@+.+@O",
"@+@X.o@@@@@@@O@O+@OO@@@OO@@+.+@O",
"@+@o.o@@@@@@@O@@+@Oo@@@OO@@+.@@O",
"@+@oXo@@@@@@@O@@@@OO+@@OO@@O.@@O",
"@@@oXo@@@@@@@O+@+@OO+@@O+@@O.@@O",
"@@+oXo@@@@@@@o++++OO+@@O+@@O.@@+",
"@@+o.o@@@@@@@O++++OO+@@++@@O.@@+",
"@@+o.X@@@@@@@O++++OO+@@++@@o.@++",
"@+Oo.X@@@@@@@O+O++oO+@@++@+o.@++",
"@OOOXX@@@@@@@O+OO+oO+@@++@+o.@O+",
"@OOOXX@@@@@@@O+OO+oO+@@+@@+oX@O+",
"@OO@XX@@@@@@@O@OO+OO+@@@@@+oX@O+",
"@OO@X.@@@@@@@O+OO+OO++@@@@OXX@++",
"@Oo@X.@@@@@@@O@O++OO+O@@@@OXX@O+",
"+Oo+XX@@@@@@@O@O++oO+O+@@@OXo@O@",
"@Oo@XX@@@@@@@O@O++oOOO+@@@OXo@O@",
"@+o+XX@@@@@@@+@+++o+OO+@@@oXo@O@",
"@+o+XX@@@@@@@@@+++O+OO@@@@oXo@O@",
"@@o@XX@@@@@@@+@+O+O+OO@@@@oXo@O+",
"@@o@XX@@@@@@@+@@+@O+OO@@@@oXo@O+",
"@@o@XX@@@@@@@+@@+@OOO+@@@@oXo@o+",
"@@o@Xo@@@@@@@+@@+@O+O@@@@+oXo@o+",
"+@X@Xo@@@@@@+++@+@O+O@@@@@oXO@O@",
"+@X+Xo@@@@@@+O+@@@O+O@@@@@oXO+O@",
"@@X+Xo@@@@@@OO@@@@O+O@@@@+oX++O@",
"@@X+Xo@@@@@@OO++@@O+O@@@@+OX+OO@",
"+@X@Xo@@@@@@OO++@@OOO@@@@OOX+OO@",
"+@X@Xo@@@@@@Oo++@@OOO@@@@OOX+OO@",
"+@X@XX@@@@@@Oo++@@OOO@@@@OOX+OO@",
"O@X@oX@@@@@@Oo++@@OOO@@@@OOX+oO@",
"O@o+oX@@@@@@Oo+++@OOO@@@@OOX+oO@",
"O@o+oX@@@@@@OoO++@OOO@@@@OOX+oO@",
"O@o+oX@@@@@@@oO++@OOo@@@@OOX+oO@",
"O@oOOX@@@@@@@oO+@@OOo@@@@OOX+oO@",
"O@oOO.@@@@@@OoO+@@OOo@@@@OOX@oO@",
"O@OO+.@@@@@@OOO+@@OOo@@@@OOX@XO@",
"O@OO+.@@@@@@OOO+++OOo@@@+OOX@XO@",
"@@OO+.@@@@@@OOO+O@OOo@@@+@Oo@XO@",
"@@OO@.@@@@@@OOO++@OOo@@@+OOo@XO@",
"@@OO@.@@@@@@@OO+++OOo@@@OOoO@XO+",
"+@OO@.@@@@@@@OO+++OOo@@@OOoO@XO+",
"+@Oo@.@@@@@@+OO+++OOo@@@O+oO@XO+",
"@@Oo@.@@+@@@+OO+++oOo@@@O+o+@XO+",
"@@Oo@.@@+@@@@OO+++oOo@@@O+o+@XOO",
"@@Oo@X@@+@@@@OO++OoOo@@@++o@@XOO",
"++OX@X@@+@@@@OO++OoOo@@@++o@@X+O",
"+@O.+o@@O@@@+OO+OOoOO@@@+@X@+X+o",
"@@O.+o@@O@@@@Oo+OOoOO@@@@+X@@o@o",
"+++.+O@@O@@@@OoOOOoOO@@@@@X@+X+O",
"@++X+O@@O@@@@+oOOOoOO@@+@Oo@+X@O",
"@++X+O@@+@@@++oOOOOO+@@+@Oo@+X+O",
"@++.++@@+@@@@+OOOOOO+@@+@Oo@+o@O",
"@++.++@@+@@@@+OOOOo++@@+@oo@Oo+o",
"@+@.+@@@+@@@@+OOOOo+@@@+@oO@OoOo",
"@+@.O@@@+@@@@+OOOOo+@@@+@oO@Oo@o",
"@+@.O@@@++@@@OOOOOo+@@@@@oO@OOOo",
"@@@.O@@@@+@@@OOOO+O+@@+@@XO@OOOo",
"@+@.o@@@@+@@@OOO++O@@@+@@XO@OOOo",
"@+@.o@@@@+@@@+OOO+O@@@+@@XO@OOOo",
"@O@.o@@@@+@@@+O+O++@@@O@@o+@OOOo",
"@O@ X@@+@+@@@++@+@+@+@O@@o+@O+Oo",
"@O@.X@@+@+@@@++@+@+@+@O@@o+@O+OO",
"@O@.o@@+@+@@@++@O@+@++O@@oO+O+OO",
"@O@.X@@++@@@@++@O@++++O@+oO+O+OO",
"@O@.X@@++@@@@++@+@+++O+@+OO+O+OO",
"@O@.X@@+++@@@+@@+@+++O+@+OOOO+OO",
"@O@..@@+O+@@@O+@+@+++o+@+OOOO+oO",
"@o+X.@@+O+@@@O+@++O++o@@++OOO+oO",
"@O@X @@+O+@@@O@@@+O+Oo@@+@OOO+o+",
"@O@X.+@+O+@@@O@@@+O+Oo@@+@OOO+o+",
"@O@X.+@+O+@@@OO@@@O+Oo@@+@@OO+o+",
"@O@X.+@@o+@@@OO+@+O+Oo@@+@OOO+o+",
"@O@o.+@@o+@@@Oo+@+O+OO@@+@OOO+o+",
"+O@o.+@@X+@@@Oo+++OOOO@@+@OOO+X+",
"+o@o.+@@XO@@@oo++OOOOO@@+@OOO@X+",
"+O+o +@@XO@@@oo+@OOOoO@@+@OOO+X+",
"+O+O +@@oO@@@oO+@OoOOO@@+@OOO@X+",
"+@+O +@@oO@@@oO+@OoOOO@@+@oOO@XO",
"+OO+ +@@oO@@+o+++ooO+O@@+@o++@Xo",
"+@O@ +@@OO@@+o+++ooO+O@@@@X++@XO",
"O@O@ +@@OO@@@o++@ooO+O@@@@X+O+X+",
"O@O+ +@@Oo@@Oo+++ooO+O@@@@X+O+XO",
"O+O@ +@@Oo@@Oo++@ooO+O@@@@X+O+XO",
"O@o@ +@@+o@@Oo++@oX++O@@@@X+++XO",
"O+o@ +@@+o@@Oo++@oX++O@@@@X+O+XO",
"O+o@ O@@+o@@Oo++@oX++O@@@@X+O+XO",
"O+o@ O@@+o@@+oO++oX++O+@@@X+O+XO",
"O+o@ O@@+o@@+oO++oX++O+@@@XO+OX+",
"o+o@.o@@@o+@@oO++oX++O@@@@XO+Oo+",
"o+o@.o@@+o+@@o+++Xo+Oo@@@@oO+Oo+",
"o@o@.o@@+o+@@oO+OXo+Oo@@@+oO+oo+",
"X@o@.o@@@oO@@oO+OXo+Oo@@@+oO+oo@",
"X@X@Xo@@@oO@OoO@+Xo+Oo@@@OOO@oo@",
"X@X@XX@@@oO@@oO@+Xo@Oo@@@OOO@Xo+",
"X@X@XX@@@OO@OoO++Xo@Oo@@@OOo@Xo+",
"X@X@XX@@@OOo@O+@+Xo@Oo@@@O+o@Xo+",
"X@X@XX@@@OOO@O+@OXo+Oo@@@O@o@.O+",
"o@X+oX@@@OOO@O+@+XX+Oo+@@o+o@.OO",
"o@X+oX@@@OOO@O+@+XX+Oo@@@o@o@.OO",
"o@o+o.@@@+OOOO+@+XX+Oo@@@O+o@XOO",
"O@o@o.@@@+OOOO+@+XX+Oo@@@O+o@XOO",
"O@o+OX@@@+OOOO@@+XX+Oo@@@O+o@.+O",
"O@o@OX@@@+OOOO@@+XX++o@@@+@o@.+O",
"O@oO+X@@@+OOOO@@+XX++o@@@+Oo@.+O",
"O@oO@X@@@++@OO@@OXX@+o@@+@OO@.+O",
"O@oO+X+@@O+@OO@@OXo@+o@@+@oO@.+O",
"O@oO+X+@@O@+OO@@+Xo@+O@@+@oO@.+O",
"O@Oo@X+@@O@Oo+@@+Xo@+O@@+@o+@.+O",
"O@oo@XO@@O@+o+@@+XX@+@@@O@X@@X+O",
"O@oo@oO@@O@Oo+@@+Xo@@@@@O@X@@X+O",
"O@oo@oo@@O@+o+@@+XX@@@@@O@X@+X+O",
"O@oo@oo@@O@@X+@@@oX@@@@@+@X@+X+o",
"+@oo@oo@@O@@X+@@@oo@@@@@+@X@+X+o",
"+@oX@Oo@@O@@X@@@@oo@@@@++@X@OX+o",
"++OX+OX@@O@@O+@@+oo@@@@++@X@Oo+o",
"@@OX+OX@@O@@@@@@+oO@@@@+@@X@oo+o",
"@+OX+@X@@O@@@@@@@oO@@@@+@@X@oo+o",
"@+OX++X@@O@@X@@+@o+@@@@+@@o@oO+o",
"@@OX++X@@+@+O@@@+o+@@@@+@+o@XO+o",
"@+OXO+X@@+@+@@@@+OO@@@++@+o@XO@o",
"@+OXO+X@@+++@@@++OO@@@++@+o@XO@o",
"@+OoO+o@@+++@@@@+OO@@@++@+O@.++o",
"@+OXO+o@@+++O@@@+OO@@@+@@+O@.+@o",
"++OXO@o@@O++@@@@+OO@@@+@@O+@.+Oo",
"@@OXO@O@@O++@@@@+OO@@@+@@O+@.+Oo",
"@+OXO+O@@O++@@@@+OO@@@@@@O+@.+Oo",
"@+OXO+O@@O++@@@@O@O+@@@@@O@@ +Oo",
"@+OXO@+@@O+OO@@@+OO+@@@@@O@@ +Oo",
"@@OXO@++@+++@@@+OO++@@@@@O@@ +Oo",
"@@OXO+++@+O+@@@OoO@+@@@@@@@+ @oo",
"@+OXO+@+@+O@@@@Oo@@+@@@@@@@+ @oo",
"+@OoOO@O@+O@@@@Oo+@@+@@@@@@+ +oo",
"O+OoOO@O@@OO@@@Oo+@++@@@+@@O +oO",
"O+Xo+O@O++OO@@++o+@++@@@+@@O @oO",
"O+Oo+O@O++O@@@++o@@++@@@+@@O.@oO",
"O+OO+O@O@+OO@@+@o@@+O@@@+@@o.@oO",
"O+OO+o@O@@OX@++@o@@+O@@@@@+o.@XO",
"O+OO+o@O@@OO@++@o@@+O@@@@@+oX@XO",
"O+OO+o@O@@OO+@+@o@@OO@@@@@+oX@XO",
"O@oO+o@+@+Oo+++@o+@OO+@@@@+oX@XO",
"O+OO+o@+@@+OO@+@o+@OO+@@@@OoX@XO",
"OOO++o@+@@+OO@+@o@@OO+@@@@OXX@XO",
"@+O++o@+@++oO@+@O@@+OO@@@@OXo@XO",
"++o@+O@@@@Oo+@O@o@@+OO@@@@OXo@XO",
"++o++++@@@OoO@O@o@@+OO@@@@OXo@XO",
"++o@O@+@@@OOOO++o@@+OO@@@@OXo+XO",
"++o@O@O@@@OXO+++o@@+oO@@@@OXO+XO",
"O+o@o@O@@@OOO++Oo@@+Oo@@@@oXO+XO",
"O+X@o@o@@@OOO+Ooo@@+Oo@@@@OXOOX+",
"O+X@o@o@@@OOO++Oo@@+Oo@@@@OXOOX+",
"O+X@o@X@@@OOO+OOo@@+oo@@@@OX+Oo+",
"+OX@o@X@@@+OO+OOO@@+oo@@@@OX+Oo+",
"@OX@o@X@@@+OO@+OO+@+oX@@@+OX+oo+",
"@OX@o@.@@@+OO@++O+@OoX@@@OOX+oo+",
"++X@o@.@@@+oO@O+o+@OoX@@@OOX@ooO",
"@+o@o@.@@@+oO@++o+@+oX@@@OOX@ooO",
"@+o@O@.@@@@OO@O+o@@+oX@@@OOX@XoO",
"O+o@o@.+@@@o@@O+o+@+oX@@@oOX@XoO",
"O+o@O@X+@@@o+@O+o@@+oX@@@ooX@XoO",
"++o@O@XO@@@O+@O+o@@+oX@@@oOo@XoO"
};
