/* XPM */
static char *out[] = {
/* columns rows colors chars-per-pixel */
"32 256 7 1 ",
"  c #4F0000",
". c #570000",
"X c #5F0000",
"o c #670000",
"O c #6F0000",
"+ c #770000",
"@ c #7F0000",
/* pixels */
"o+O@O.@@@@@@@OOoOOOOo@@@@X+O@oO@",
"o+O@O.@@@@@@@OOOO+OOo@@@@X+O@XO@",
"o+O@O.@@@@@@++OOO+OOo@@@@X+O@XO@",
"o++@O.@@@@@@@+OOO+OOo@@@+X+O@XO@",
"o@+@+.@@@@@@@+OOOOoOO@@@+X+O@XO@",
"O@+++.@@@@@@@+OOOOoOO@@@Oo+O@XO+",
"O@+@+X@@@@@@++oOOOoOO@@@Oo+O@XO+",
"+@+++.@@@@@@@OoOOOXOO@@@OoOO@XO+",
"@@+++X@@@@@@@Oo+OOoOO@@@OoOO@X++",
"@@+++X@@@@@@+OoOO+oOO@@@OOO+@X++",
"@@+O+X@@@@@@@+OO++oOO@@@OOO+@X+O",
"@@+O@X@@@@@@@+oOO+oOO@@@OOo+@X+O",
"@++O+o@@@@@@@Oo+OOoOO@@@OOo@@X+O",
"+@+O+o@@@@@@@Oo+++oO+@@+O+o@@X+O",
"+@+o+o@@@@@@@Oo+O+oO+@@+O+o@@o+O",
"+++o+O@@@@@@@+o+O@oO+@@+++o@@o+O",
"@++o+O@@@@@@@+oOO+O++@@+++o@+o+O",
"@@@o++@@+@@@@+OOO+O++@@O++o@+o+O",
"@+@X++@@+@@@@+OOO@O+@@@O++o@Oo+O",
"@+@X+@@@+@@@@+OO++O+@@@O@+o@Oo+O",
"@+@XO@@@+@@@@+OO++O+@@@O@+o@Oo+O",
"@+@XO@@@+@@@@+OO++O+@@@O@Oo@Oo+O",
"@+@XO@@@+@@@@+OO++O+@@@O@OO@oO@o",
"@+@XO@@@+@@@@+OO++O+@@@O@OO@oO@o",
"@+@XO@@@+@@@@+OO+++++@@O@OO@o+@o",
"@+@.o@@@+@@@@OOO@++++@@O@oO@o++o",
"@+@.o@@@+@@@@+OO@++++@@+@o+@o+@O",
"@O@Xo@@@+@@@@+O@@++++@++@X+@o+OO",
"@O@Xo@@@+@@@@+O+@+@++@+@@X+@o@OO",
"@O@Xo@@@+@@@@++@@+@++@+@@X@@X@OO",
"@o+Xo@@@+@@@@++@@@+++@+@@X@@X@OO",
"@o@XX@@@+@@@@+O@@@+OO@+@@X@+X@OO",
"@o@XX@@@O@@@@+O@++@OO@+@+X@+X@OO",
"@o@Xo@@@O+@@@+O@+++O+++@+X@OX@OO",
"@o+Xo@@@OO@@@++@+@+++++@+o@Oo@OO",
"@o+Xo@@@OO@@@O+@+@+O+++@Oo@Oo@oO",
"@o+Xo@@@OO@@@O+@+@+++++@Oo@oo@OO",
"@o+Xo+@@OO@@@O+@+@+O++@@OO@oo@oo",
"@o+Xo+@@OO@@@OO@+@+O+O@@oO@oo@oO",
"@oOoo+@@oO@@@OO++@OO+O@@o+@oo@oO",
"@oOooO@@oO@@@OO++@OO+O@@o@@oo@oo",
"OoOooO@@XO@@@OO+O@OOOO@@o@@oo@oo",
"OoOooO@@oO@@@OO++@+OOO@@O@+oO@oo",
"+oOooo@@oo+@@OO@@@+OOO@@O@+oO@XO",
"+oOooo@@oO+@@OO@@@+OOX@@O@+oO@XO",
"OoOooo@@oo+@@OO@@@OOOO@@O@OoO@XO",
"OOOooo@@Oo@@@OO+++OOOX@@+@Oo+@XO",
"OOOOXo@@Oo@@@OO+++OOOO@@+@Oo+@XO",
"OOoOXo@@Oo@@@OO@+++OOX@@@@oo+@XO",
"OOoOXo@@Oo@@+O++++OOOX@@@@oo+@X+",
"OOoOXo@@Oo+@Oo++++OOO@@@@@oo@@X+",
"OOoOXo@@+oO@Oo++++OOO@@@@@oo@+XO",
"OOo+.o@@+oO@Oo+@++OOO@@@@@oo@+XO",
"oOo+.o@@+oO@Oo+@++OOO@@@@@oo@+o+",
"oOo+.o@@+O+@OoO@++OOOO@@@@oo@+o+",
"OOo+XO@@@OO@@oO+++OOOO@@@@oo@Oo+",
"@@o+XO@@@OO@@oO@+OOO+O@@@@oo@OoO",
"O@o+XO@@@OO@@O+@+OOO+O@@@@oo@OoO",
"O@o+X+@@@OO@@O+@OOOO+X@@@@oo@oo+",
"O+o+X+@@@OO@+OO@OOOO+O@@@@oo@oo+",
"O+o+XO@@@OO@+oO@+OO++O@@@+oo@oo+",
"o+o+XO@@@OO++oO@+OO+OO@@@+oo@oX+",
"O@oOoO@@@OOO+OO@OOO+OO@@@+oo@oo+",
"O@oOoO@@@+OO+O+@OoO+OO@@@+oo@Xo+",
"O@oOoO@@@+OO@O+@OO++OX@@@+oo@XoO",
"+@OOoO@@@+OO+O+@OOO+OO@@@+oo@XoO",
"++OOOO@@@@OO+O+@OOOOOO@@@+oo@XoO",
"++OOOo@@@@Oo@O+@+OOOOO@@@+oO@XoO",
"@+OOOo@@@@OO@O@@OOOOOO@@@+XO@XOO",
"@+OO+o@@@@Oo+O@@O@oOOO@@@+XO@.OO",
"@+Oo+X@@@@+o+O@@O@oOO@@@@+XO@.Oo",
"@+Oo+X@@@@+O@O@@OOoOO@@@@+X+@.Oo",
"@+Oo+X@@@@+O@O@@OOoOO@@@@+X+@.Oo",
"@++o+X@@+@@OOO@@OOo+O@@@@+X+@.Oo",
"@++o+X@@+@@OOO@@OOo+O@@@@@X@@.Oo",
"@++o+X@@O@@OXO@@OOo+O@@@@@X@@.@o",
"@++X+X@@O+@OO+@@+OX++@@@@+.@@.+X",
"@+OX+X@@O+@O@+@@+OoO+@@@@+X@@.+X",
"@+OXOX@@O+@XO+@@+OXO@@@@@@X@+X@X",
"@+OXOo@@OO@@OO@@+OXO@@@@@+X@+.+X",
"@+OXOo+@OO@@@+@@+OXO@@@@@+X@+.+X",
"@+OXOoO@OO@@++@@+OXO@@@+@OX@O.+X",
"@+OXOoO@+O@@+O@@+OoO@@@+@Oo@OX+X",
"@+OXoOO@+O@@@+@@+OO+@@@+@Oo@OX+X",
"@+OooOo@+O@@@+@@+OO+@@@+@Oo@oX@X",
"@+OooOo@+o+@@+@@+OOO@@@@@Oo@oX@o",
"@+OoX+o@+o+@@+@@+OOO@@@@@OO@XX@o",
"@+OoX@o@+X+@@@@@+OO+@@+@@oO@XX@o",
"@+OoX+o@@X+@@@@@+OO+@@+@@o+@Xo@o",
"@+OoX@o@@XO+@@@@++O+@@+@@o+@Xo@o",
"@+OoX+o@@XO+@@@@++O+@@@@@o@@.o@o",
"@+OoX@O@@XO@@@@@++OO@@@@@o@@.o@o",
"@+OOXOO@@Xo@@+@@++OO@@@@@o@@.o@o",
"@+OOX+O@@Xo@@@@@++OO@@@@@o@@.o+o",
"@@+oXOO@@Xo+@+@@O+OO@@@@@o@@ O+o",
"@@+OXO+@@ooO@+@@O+Oo@@@@+o@@ O+o",
"@@+oXo+@@oo+@@@@+++o+@@@@O@@ O+o",
"@@+oXo+@@OX@@@@+++@o+@@@+O@+ ++o",
"@@+ooo++@OX+@@@OO+@o+@@@+@@+ +OO",
"@@+Ooo++@+XO@@@+O+@O+@@@+@@+ +OO",
"@@+OOX++@+oO@@@+O+@O+@@@+@@+ +OO",
"@@OOOX@+@@oO@+@+O+@OO@@@O@@O +OO",
"+@OOOX@+@@oo@+@@O+@OO@@@O@@O +XO",
"+@oOOX@+@@oX@O@@O+@oO@@@O@@o @OO",
"+@oO+X@+@@oX+O@@O+@oO@@@O@@o @oO",
"+@oO+.@+@@Oo+O@@O+@oO@@@O@@o.@o+",
"O@oO+.@@+@+o+++@O++o+@@@O@@o.+o+",
"O@o@+.@@+@+oOO+@O++o+@@@+@+X.@oO",
"O@o@+.+@+@@oOO++O+@O+@@@+@+X.@oO",
"+@X+@.+@+@@oO+++o+@O+@@@+@+X.@XO",
"+@X+@.O@O@@oO++@o+@O+@@@+@+XX@X+",
"@@X@@Xo@O@@oO+O@O@@O+@@@@@+XX@X+",
"@@X+@oo@O@@oO+O+O+@++@@@@@+XX+X+",
"+@X+@OO@++@OOOO+o@@@+@@@@@+.X+o+",
"+@X+++O@++@OOO+Oo@@@+@@@@@+.X+o+",
"+@X+++O@++@@+++Oo@@@+@@@@@+.o+X+",
"+@.+O+o@++@@@+OOo@@@+@@@@@O.o+X+",
"O@.+O+o@@+@@+++Oo@@@+@@@@@O.o+X+",
"+@.+O+o@@+@@+++Oo@@@+@@@@@O.oOo@",
"+@.+o+X@@++@@++Oo@@@+@@@@@O.OOo@",
"+@.+o+X@@@+@+++@O@@@OO@@@+O.Ooo@",
"+@.+oO.@@@+@+@++O@@+OO@@@+O.Ooo@",
"+@.+O+.@@@+@+@++O@@+Oo@@@OO.Ooo@",
"O@.+O+.+@@O@@@++O@@+Oo@@@OO.Ooo@",
"O@.+O+.+@@++@++@O@@+oo@@@OO.OoO+",
"O@.+O@.+@@++@@+@O@@+oo@@@OoXOXO+",
"O@XOO@XO@@+O@@++O@@+oo@@@OoXOXO+",
"O@XOO@XO@@+O@@++O@@+oo@@@+oXOXO+",
"O@XoO@XO@@+O@@+@O@@Ooo@@@OoXOXO+",
"O@XoO@Xo@@@O@@+@O@@OXX@@@OoXO.O+",
"O@Xo+@Xo@@@O+@+@O@@OX@@@@OoXO.O+",
"O@oX@@Xo@@@O+++@O@@OX@@@@OoXO.O+",
"O@oX@@Xo@@@O@++@O@@oX@@@@OXoO OO",
"O@oX@@oo@@@+O+++O@@ooO@@@OXoO ++",
"O@oX@@oo@@@+@+++O@@oo@@@+oooO +O",
"o@oX@+Oo@@@+OO++O@+oo@@@+ooOO +O",
"o+oX@+Oo@@@+OO++O@+oo@@@+ooOO +O",
"o@O.@+OX@@@@OO+@O@+oo@@@+ooOO +O",
"o+O.@++X@@@@OO++O@+Oo@@@+ooOO +O",
"o+O @++X@@@@Oo++O@OOo@@@+Xo+O @O",
"o+O @@+X@@@@Oo++O@OOo@@@+Xo@@ @O",
"o+O @@@X@@@@Oo++O@OOo@@@+Xo+O @O",
"o+O +@@X@@@@OoO++@OOo@@@+Xo@O +O",
"o++ +@@X@@@@OoO++@OOO@@@+XO@O.@O",
"O++ O@@X+@@@OoO++@OOO@@@+XO@O.+O",
"O++ O@@X+@@@OOOO@@O+O@@@+XO@O.@O",
"+++ O@@X+@@@OOO+@@O++@@@OXO@o.+O",
"@++ O@@X+@@@@OO+@@O++@@@OXO@o.@O",
"@+O O@@X+@@@@OO+@@O+@@@@+XO@oX@O",
"+OO o@@X+@@@@OO++@o+@@+@OX+@oX@O",
"@O@ o@@X+@@@@O++@@o+@++@OXO@XX@O",
"@++.X@@oO@@@@O++@@o@@++@Oo+@XX@O",
"@+@.X@@o+@@@@O++@@o@@++@OoO@Xo@O",
"@O@.X@@oO@@@@O+@@@O@@++@OoO@.o@O",
"@O@..@@oO@@@@++@@@O@@O+@OoO@.o@O",
"@O@..@@oO@@@@++@+@O@+OO@O@+@.o@O",
"@O@..@@OO@@@@O@@@@O@+OO@OOO@.O@O",
"@O@..@@OO@@@@O+@@@O@+OO+O@O@.O@O",
"@O@..@@OO@@@@++@@@O@+OO+++O+.O++",
"@O@..@@Oo@@@@++@+@O@+OOO++o+.O++",
"@O@X @@Oo@@@@++@+@O++OOO+@O+.O++",
"@O@X @@Oo@@@@O+++@O++OOO+@OO.O++",
"@O+X @@Oo@@@@O++@@O++OOO++OO.O++",
"@OOo +@Oo@@@@O++@+o++Ooo@@OO.O++",
"@O+o +@Oo+@@@OO+@Oo++Ooo@@Oo.+O+",
"@O+o O@OO+@@@OO+@Oo++OoO@@Oo.+O+",
"@O+o O@OO+@@@OO+@Oo++OoO@@@o.+O+",
"+O+O O@@O+@@@OOO@Oo++OoO@@Oo.+O+",
"@O+O o@@O@@@@OoO@Oo++OoO@@+o.+O+",
"+O+O o@@O@@@@OoO@Oo++OoO@@+X.+O+",
"@O++ o@@O@@@@OoO@oo++OoO@@+XX+o+",
"@O++ o@@+@@@@Ooo@oo++Oo+@@OXX+o@",
"@+O+ o@@+@@@@OOo@oo@+oX+@@OXX+o@",
"@@O@ o@@+@@@@OOO@oo@+oXO@@OXX@oO",
"@+O@ o@@+@@@@O+O+oo@+oXO@@OXX+oO",
"@@o@.o@@+@@@@O+O@oo@+XX+@@oXX+O+",
"@@o@ O@@@@@@@O+O@oo@+XXO@@oXX+O+",
"@@o@ O@@@@@@@O+O@oO@+XXO@@oXo+o+",
"@@o@.O@@@@@+@O+O@oo@+XXO@@oXo+o+",
"@@o@.O@@@@@@@O+O@oo@+oX+@@oXO+o+",
"@@o@.O@@@@@@@O+O@oo@+oXO@@XXO+O+",
"@+X@.O@@@@@+@O+O@Oo++oXO@@oXO+O+",
"@+X@.O@@@@@@+O+O@Oo++oXO@@oXO+O@",
"@+X@.O@@@@@@+O+O@Oo+OoXO@@oX++O@",
"@+X@.o@@@@@@@O+O+oo+Ooo+@@oX+OO@",
"@+X@.o@@@@@@+O+O+Oo++oo+@@oXOO+@",
"@@X@Xo@@@@@@+O+++ooOOoo+@@oX+O+@",
"@@X+Xo@@@@@@@O+O+Oo+OXo+@+oX+OO@",
"+@X@Xo@@@@@@@o++@oo+Ooo@@+oX@o+@",
"@@X@Xo@@@@@@@O++@oo++oo@@+oX@oO@",
"+@X@oo@@@@@@+o+O+oo+OXO@@+oX+o+@",
"@@X+oo@@@@@@@O+O+oo+OXO@@+oX@o+@",
"@@X+oo@@@@@@@O+O+Oo+OXO@@@oX@X+@",
"@@XOoo@@@@@@@O+++oXOOoO@@@oX@X+@",
"+@XOoX@@@@@@@O++@oXOOoO@@+oX@o+@",
"@@XOoX@@@@@@@OO+@oX+OoO@@+oX@o+@",
"@@oOoX@@@@@@@OOO+oX+OXO@@@oo@X++",
"@@oOOX@@@@@@@+OO+oXOOoO@@+oo@X@+",
"@@oOOX@@@@@@@+O++oXOOoO@@@Xo@X@+",
"@@oOOX@@@@@@@+OO+oXOOo+@@@XO@X@+",
"@@ooOX@@@@@@@@OO@oX+Oo+@+@XO@X@+",
"@@ooOX@@@@@@@@OO+XXO+o@@+@.O@X@+",
"@@Oo+X@@@@@@@@+++oXO+O@@+@.+@X@+",
"@@Oo+X@@@@@@@@O++XXO+O@@O@.+@X@O",
"@@OX+o@@@@@@@@OO+XXO+@@@+@.@@X@+",
"@@oX+o@@@@@@@+OO+XX++@@@+@.@@o@+",
"@@oX+o@@+@@@@+OO+XX+@@@@+@.@@o@O",
"@@OX+o@@@@@@@OO++Xo+@@@@+@.@+o@O",
"@@OX+O+@@@@@@OOO+Xo+@@@++@.@+o@O",
"@@OX+O+@@@@@@OOO+oo++@@++@.@+O@O",
"@@OXOO+@@@@@@OOOOXo+@@@+@+.@+O@O",
"@@OXO++@@@@@@OOOOXO+@@@+@+.@OO@O",
"@@OXO@+@@@@@@OOO+oO@@@@O@+X@OO@O",
"@@OXO++@@@@@@OOO+oO@@@@O@OX@OO@O",
"@@OXO@+@@@@@@OOO+OO@@@@+@OX@OO@O",
"@@OXO++@@@@@@OOO+OO@@@++@Oo@oO@O",
"@@OXO@+@@+@@@OOo+OO@@@++@Oo@oO@O",
"@@+XO@+@@@@@@+OO+OO@@@++@Oo@o+@O",
"@@+XO@+@@@@@@+OO+O@@@@O+@OO@X+@O",
"@@+Xo@@@@@@@@@Oo+++@@@O+@OO@X+@O",
"@@+Xo@@@@@@@@@OO+@+@@@o++O++X+@O",
"@@+Xo+@@@@@@@@+O+@+@@@O@+O++X+@O",
"@@+Xo+@@@@@@@@+O+@+@@@O@+O++X+@O",
"@++Xo@@@@@@@@++O+@+@@@O@OO++X++O",
"@@+Xo+@@@@@@@++O+@+@@@+@OO++X++O",
"@+@Xo+@@@@@@@++OO@+@@@+@O@++X++O",
"@O@Xo+@@@@@@@+++O@++++@@O@++X+@O",
"@+@Xo+@+@@@@@++@O@++++@@o@+OX@+O",
"@+OooO@+@@@@@++@@@++O+@@o@+OX@++",
"@+@ooO@@@@@@@+++O@O+O@@OO@+OX@++",
"@++ooO@@@@@@@+O+O@O+O@@@O@+OX@O+",
"@+OOoO@@@@@@@+++O@++O@@@O@+Oo@O+",
"@+OOoO@@@@@@@+++@@O+O+@O+@OOo@O+",
"@OOOoO@@@@@@++++O@O+O+@O+@OOo@O+",
"@OXOXO@@@@@@++++O+OOO+@o+@OOo@O+",
"@OO@XO@@@@@@++@+O+OOo+@X+@OOo@O+",
"@OO@XO@@@@@@++++O+OOO+@O+@oOo@o+",
"+oO+XO@@@@@@OO++@+OOOO@O+@oOo@o+",
"@oO@XO@@@@@@OO++++OOOO@o@@XOo@o+",
"+OO@XO@@@@@@OO@++@OOOO@O@@XOo@o+",
"@OO@.O@@@@@@OO@++@OO+O@O@@XOo@o+",
"@Oo@.O@@@@@@+O@+O@oO+O@O@@XOo@o+",
"++o@.O@@@@@@+O@+O@oOOo@+@@XOo@o+",
"++o@.O@@@@@@OO@++OoOOo@O@@XOo@o+",
"+@o@.O@@@@@@OO+++@oOOo@O@@X+O@o+",
"@@o@.O@@@@@@+++++OoOOo@O@@X+O@o+",
"+@o@.O@@@@@@++O+OOoOOo@+@@XOO+o+",
"+@X@.O@@@@@@+OO@+OoOOO@+@@oO++o+",
"+@o@.O@@@@@@+O+++OoOOO@+@+oO++o+",
"O@o@Xo@@@@@@+OO++OoOOO@@@OoO+Oo+",
"O+o@Xo@@@@@@+OOO+OoOOO@@@OoO@Oo@",
"o+o@Xo@@@@@@+OOO+OoOO@@@@oOO@Oo@",
"o+o@oo@@@@@@@OOOOOOOO+@@@oOO@oo@",
"X+O@oX@@@@@@@OOOO+O+o@@@@oOO@oo@",
"X@O@oX@@@@@@@OOOOOO+o@@@@XOo@oo@",
"o+O@O.@@@@@@@OOOOOO+o@@@@X+o@oO@"
};
