/* XPM */
static char *out[] = {
/* columns rows colors chars-per-pixel */
"32 256 7 1 ",
"  c #4F0000",
". c #570000",
"X c #5F0000",
"o c #670000",
"O c #6F0000",
"+ c #770000",
"@ c #7F0000",
/* pixels */
"@o@XoO@@@@@@@@+++@@@Ooo@OO@Oo++O",
"@o@XoO@@@@@@@@++@@++OoO@OO@Oo++O",
"@o@Xo+@@@@@@@@O++@++OOO@O+@Oo@++",
"@o@Xo+@@@@@@@@O++@++OOO@O+@Oo@++",
"@o@Xo+@@@@@@@@O++@O@+OO@O+@oo+O+",
"@o@Xo+@@@@@@@@O++@O++OO@O+@oo+O+",
"@O@oo+@@@@@@@@OO@@o+OOO@O@@Oo@O+",
"@O@oXO@@@@@@@@OO+@oOO@O+O@+oo@O+",
"@O@oXO@@@@@@@@++@@oOO@O++@+oo@O+",
"@O@oXO@@+@@@@@++@@o+O@O++@Ooo@O+",
"@O@oXO@@+@@@@@++@@OOO@O++@OOo@O+",
"@O@OXO@@@@@@@@+O@+OOO@O++@Ooo@O+",
"@O@O.O@@@@@@@@+O@+OO+@+++@ooO@O+",
"@O@O.O@@@@@@+++O+@oO+@+++@ooO@O+",
"@O+O.O@@@@@@OO+O++oO+@++@@XoO@O+",
"@O++.O@@@@@@OO+O+@oO+@++@@XOO@O+",
"@O++.O@@@@@@Oo+O++oO@@++@@XOO@O+",
"@+O+.O@@@@@@Oo+O++oO@@++@@.OO@O+",
"@+O+.O@@@@@@+o+O+@oO@@++@@.OO@O+",
"@@O+ O@@@@@@@oOo++oO@@O+@@.OO@O+",
"@@O+ O@@@@@@@oOo++oO+@O+@@.O+@++",
"@@o+ O@@@@@@@oOo++oO+@O+@@.O+@++",
"@@o@ O@@@@@@@oOo++oO+@++@@.O+@++",
"@@o+.o@@@@@@@oOo++oO+@++@+.O+@@+",
"@@o+.o@@@@@@@oOo++oO+@++@+.O++@@",
"@@X+.o@@@@@@@oOo++oO++++@OXO+++@",
"@@X+.o@@@@@@@oOo++oO+++@@OXO@+@@",
"@@X@Xo@@@@@@@oOo++oO+++@@oXO@++@",
"@@X@Xo@@@@@@@ooo++oO+++@@XXo@O+@",
"@@.@XX@@@@@@@ooo++oO+@+@@Xoo@O@@",
"+@.@XX@@@@@@@oooO+OO+@+@@Xoo@O@@",
"@@.@oX@@@@@@@oooOOOO+@+@@Xoo@O@@",
"@@.@o.@@@@@@@OOoO+OO+@+@@.Oo@O@@",
"@@.@O.@@@@@@@OOoO+OO+@+@@.Oo@o@@",
"+@X@O.@@@@@@@OO+O+OO+@@@+XOo@o@+",
"@@X@+.@@@@@@@oO@O+Oo+@@@OXOo@o@+",
"@@X@+.@@@@@@@oO+O+OoO@@@OXOo@o@+",
"@@.@+.@@@@@@@oo+OOOoO@@@oXOo@o@+",
"@@.@@.@@@@@@@oO+OOooO@@@oXOo@o@+",
"@@.+@.@@@@@@@OOOOOooO@@@ooOO@o@+",
"@@X+@.@@@@@@@OOOOOoOO@@@XoOO@o@+",
"@+XO@X@@@@@@@OOOOOoOO@@@oOoO@o@O",
"++XO@X@@@@@@@OOOOOOO+@@@OOo+@o@O",
"@@XO@X@@@@@@@O+OO+OOO@@@O@o+@o@O",
"@+XO@X@@@@@@@OOO++OOO@@@O@X+@o@O",
"@+Xo@X+@@@@@@OOO++OOO@@@o@X@@o@O",
"@Ooo@o+@@@@@+O+O++OOO@@@O@X@+o@O",
"@Ooo@o+@@@@@+O+O++OOO@@@O@X@+o@O",
"@Ooo@O+@@@@@@O@O++OO+@@@O@X@Oo@O",
"@Ooo+OO@@@@@@O@O++OO+@@@+@X@Oo@O",
"@+OX+O+@@@@@+O@+++OO+@@++@X@Oo@+",
"@@OXO++@@@@@@O@+++OO+@@++OX@oO@O",
"@@OXO++@@@@@@++@++OO+@@++@X@oO@O",
"@@+XO++@@@@@@@+@++OO@@@++XX@oO@O",
"@@+XO++@@@@@@@+@++OO@@@+@Oo@oO@+",
"@@+XO@+@@@@@@++@++OO@@@+@oo@XO@O",
"@@+XO@@@@@@@@O@@++O+@@@O@oO@XO@O",
"@@+XO@@@@@@@@+@@@@O+@@@+@oO@XO@O",
"@++.O@@@@@@@@+@+++O+@@@+@oO@XO++",
"@+@Xo@@@@@@@@+@@++OO@@@+@o+@XO++",
"@O@Xo@@@@@@@@++++++O@@@+@o+@.+@+",
"+O@Xo@@@@@@@@+@++++O@@@+@o+@.+O+",
"+O@Xo@@@@@@@@+@@++OO+@@@@o@+.+O+",
"OO@Xo@@@@@@@@+@@+@OO+@@@@o@+.@o+",
"+O@Xo@@@@@@@@+@++++O+@@@+O@O.@o+",
"+O@Xo@@@@@@@@+@++++O+@@@+O@O.@oO",
"+O@Xo@@@@@@@@@@++++O+@@@+O@OX@oO",
"+O@Xo@@@@@@@@+@+++OO+@@@O+@oX@oO",
"+O@oo+@@+@@@@+++O@OOO@@@O+@oX@oO",
"@O@oo+@@+@@@@+++O@OOO@@@O+@oX@XO",
"@O@oXO@@+@@@@@++O@OOO@@@O@@oX@XO",
"@O@oXO@@+@@@@+++O@OOO@@@O@@oo@XO",
"@O@oXO@@+@@@@++++@OOO@@@O@@oo@XO",
"@O@oXo@@O@@@@++++@OOO@@+O@@oo@X+",
"@O@oXo@@O@@@@++++@OOO@@++@+Xo@XO",
"@O@OXo@@O@@@@++@++OOO@@++@+Xo@XO",
"@O@OXo@@O@@@@O+@++OOO@@++@+XO@XO",
"@O+OXo@@O@@@@O+@++OOO@@+@@OXO@XO",
"+O+OXo@@O@@@+++@++OOO@@+@@OXO@XO",
"+O+OXo@@+@@@OO+@++OOo@@+@@OX+@XO",
"++O+Xo@@@@@@OOO@++OOo@@+@@OoO+X+",
"++O+Xo@@+@@@+O+@O+OOo@@O@@Oo++X+",
"++O+Xo@@+@@@+O++O+OOo@@+@@Oo@OX+",
"++O@Xo@@+@@@+O++O+OOo@@+@@Oo@OX+",
"@+O@Xo@@+@@@@O++O+OOO@@+@@Oo+OX+",
"++O@XO@@+@@@+OO+O+OOO@++@@OX+oo+",
"O+O@.O@@+@@@+oO+O+OOO@++@@OX@oo+",
"@+O@.O@@+@@@@oO+OOOOO@+@@@OX@oo+",
"@@O@.O@@+@@@@OOOOOOOo@+@@@Oo@oo+",
"@@O@XO@@@@@@@OoO+OOOO@+@@@Oo@oo+",
"@@O+XO@@@@@@@OoO+O+Oo@@@@+Oo@oo+",
"@@o+XO@@@@@@@oO++O+oo@@@@+Oo@Xo+",
"@@o@Xo@@@@@@@oO++O+oo@@@@+Oo@XO+",
"@@o+XO@@@@@@+OO+++Ooo@@@@@Oo@XO+",
"@+O+oO@@@@@@+OO+OOOoo+@@@@Oo@XO+",
"@+O+oO@@@@@@@OO+OO+oo@@@@@Oo@.O+",
"@@OOoo@@@@@@@OO+OO+oo+@@@@Oo@X++",
"@+OXoo@@@@@@@O++O+Ooo+@@@@oO@X++",
"@+OOOo@@@+@@@O++O+Ooo+@@@@oO@X++",
"@+OoOo@@@+@@@O++++OoO+@@@@oO@X+O",
"@+Oo+o@@@@@@@O++++OoO@@@@@oO@.@O",
"@+Oo+o@@@@@@@O@+++ooO@@@@@oO@.@O",
"@+OXOo@@+@@@@O++++ooO+@@+@o+@.@O",
"@+OX+X@@+@@@@oO+++ooO@@@+@X++.@O",
"@OOX+X@@O@@@@oOOO+ooO@@@+@X+@X@O",
"@OOX+X@@o+@@@oOOO+oXO@@@+@X+@.@O",
"+OOX+X@@o+@@@oOOOOooO@@@+@X+@.@O",
"+OOX+X@@o+@@@oOOO+ooO@@@+@X+@X@o",
"@OO.@X@@o+@@@o+O++ooO@@@+@X@@X@o",
"@OOX@X@@oO@@@o++OOooO@@@++X@@X@o",
"@OOX@X@@oO@@@o++OOoo+@@@++X@@X@o",
"@OOX@X@@XO@@@o++OOoo+@@@++X@+X@O",
"@OOX@o@@oO@@@O++OOoO+@@@++X@+X@O",
"@O+X+o@@oo@@@O++O+oO+@@@@OX@OX@o",
"@OOX+O@@oo@@@O++O+o++@@@@OX@Oo@o",
"@O+XOO@@oo@@@O++O+o+@@@@@Oo@oo@o",
"@O+XOO@@oo@@@O+@O+o+@@@@@oo@oo@o",
"@O+Xo+@@oX@@@O+@++O+@@@@@oo@oo@o",
"@O+oo+@@oX@@@O+@++O+@@@@@oo@Xo@o",
"@O+oX@+@OX@@@O+@++O@@@@@@oO@Xo@o",
"@O+oX@+@OX@@@O+@+@O@@@@@@oO@Xo+o",
"@OOo.@+@+X+@@O+@+@O@@@@@@o+@Xo@o",
"@OOo.@+@+X+@@O+@+@+@+@@@@o+@XO@o",
"@OOo.@+@@XO@@O+@@@+@+@@@@o+@.O@o",
"@Ooo.@@@@XO@@OO@@@+@+@@@@o@@.O@o",
"+Ooo.+@@@XO@@+O@@@+@O@@@@o@@.O@o",
"+OOo.+@@@oo++++@+@@@O@@@@o@@.O@o",
"@OOo.+@@@oXO@++@+@+@O@@@+o@+.+Oo",
"@+oo.+@@@oXO@O+@@@+@O@@@+o@@.@Oo",
"@+Oo.O@@@oXO@O+@@+O@O@@@+O@O.@Oo",
"@+ooXO@@@OXO+O+@@@O+O@@@OO@O.@Oo",
"++OoXo@@@OXO+O@@@@O+O@@@O+@O.+Oo",
"@+oOXX@@@+XO@O@@@@++O@@@O+@o.@oO",
"@+oOoX@@++ooOO@@+@O+O@@@O@@o.@oO",
"@+oOoX@@+@ooOO@@@@++O@@@O@@o.@oO",
"O+oOo.@@+@oo@O@@++O+O@@@O@@o.@oO",
"O+oOo.@@++OOOO@@++O@O@@@O@@o.@oO",
"O+oOo.@@O+OoOO@@++O@O@@@O@@o.@oO",
"@+oOo.@@O@OoOO@@+@O@O@@@+@@o.@XO",
"O@ooo.@@O++ooO@@+@O@O@@++@@o.@XO",
"O@Xoo @@O++oo+@@@+o@+@@++@@oX@XO",
"o@Xoo @@OO+oOO@@+OO@+@@++@@XX@Xo",
"o@XXo.@@OO@OOO@@++o+@@@+@@+XX@Xo",
"O@.oo.@@Oo++OO@@@+o@@@@+@@+Xo@Xo",
"O@.oo.@@+o@@OO@@@+o@@@@O@@+Xo@Xo",
"o@.oo.@@+X@@O+@@++o+@@@+@@OXO@Xo",
"o@.oo.+@+X@@O+@@@+o@@@@+@@OXO@XO",
"o@.oo.+@@X@@X+@@++O@@@++@@OXO@XO",
"o@.oOXO@@.+@@+@+++O@@@++@@OX+@XO",
"o@.oOXO@@.@@@@@++Oo+@@O@@@OX+@XO",
"o@.ooXo@@.+@O+@++Oo+@@O@@@oX@@XO",
"o@.ooXo@@.O@++@@+Oo+@@o@@@oX@+XO",
"O@.ooXo@@.O@@+@+++o+@@O@@@oX@+XO",
"O@.oooo@@Xo@@@@+++o+@@O@@@XX@+oO",
"O@.oooX@@Xo@@+@+O+o+@@O@@@XX@+oO",
"O@.oooX@@XX@@+@@O+oO@@+@@@XX@+oO",
"O@XXooX@@oX@@O@@O+o+@@+@@+XX@OoO",
"O@XXooX@@oX@@O@@O+o+@@@@@@Xo@Oo+",
"o@XoOOX@@OX@@O@@o+oO@@@@@+.o@Oo+",
"o@XXOOX@@+XO@+@@oOoO@@@@@+.o@oo+",
"o@oXOOX@@+XO@+@+oOoO+@@@@+.O@oo@",
"O@XXOOX@@@XO@@@OoO+O+@@@@@.O@oO+",
"O@XXOOX+@@oO@@@OoO@OO@@@@+.O@Xo+",
"+@XXOOXO@@oo@@@OOO@OO@@@@+ O@.o+",
"O@oXoooO@@oo@@+OOo@Oo@@@@+ +@.O+",
"O@oXXooO@@Oo@++OoO@oo@@@@O +@.O+",
"O@OX@ooo@@Oo@+O+OO@oO@@@@O.+@.O+",
"O@OX+ooo@@+o++O+Oo+oO@@@@O.@@.O+",
"O@OX@ooX@@+OOOO+Oo+oO@@@@O.@@.++",
"O@OX@OOX@@+O+Oo@Oo+oO@@@@o.@@.OO",
"O@+X@OO.@@@OO+O@OoOoO@@@@o.@@ OO",
"o@+X@OO.@@@OOOO+OoOoO@@@@oX@@ +O",
"O@+.@OO.@@@OOOOOOo+oO@@@@XX@@.+O",
"O@+X@OO.@@@OO+O+Oo+OO@@@@XX@@.Oo",
"+@+.@+O.@@@OO+O+Oo+OO@@@@XX@+ +X",
"+@O.@@O.@@@OO+O+Oo@O+@@@@Xo@+ @o",
"+@+.@@o.@@@@X+O+Oo@++@@@@Xo@O @o",
"@@@.+@oX@@+@OO+OOo@++@@@@Xo@O.@o",
"@@@.O@oX+@++OO+OOo@@@@@@@Xo@O.@o",
"@@+.o@OX+@+@@@+OOo+@@@@@@XO@o.@o",
"@+@Xo@oX+@+@@++OoO+@@@@@+XO@o.@o",
"@+@Xo@ooO@++@@+OOOO@@+@@+o+@X.@o",
"@+@XX@ooO@@@@++OOO+@@+@@+o@@X.+O",
"@+@XX@oOO@++@@+OOO@@@+@@+o+@XX@O",
"@++XX@oOo@+O@@@+OO+@@O@@+o@@.X@O",
"@++XX@oOo@+O@@@+OO+@+O@@+O@@.X@O",
"@O@XX@OOo@@O@@@+OO@@+O@@+O@@.X@O",
"@O@XX@OOo@@O@@@+OO@@OO@@+O@@.X@O",
"@O@oX@O+o@@o@@@++O@@OO@@+O@@.X@O",
"@O@o.@O+o@@o@@@++O@@+O@@+O@+.oOO",
"@O@o.@O+o@@X+@@@++@@+O@@O+@+ oOo",
"@O@o.@++o@@O@@@@+++@+o@@O@@+ oOo",
"@+@o.@@@O@@O@@@@+++++o@@O@@O oOo",
"@O@o.@@@O@@O@@@@+++++O@@O@@O oOo",
"@O@o.@@+O+@+@@@@+@@++O@@O+@o oOo",
"@+@o.@@+O+@@O+@@++O++O@@O+@o Ooo",
"@+@o.@@+++@@@+@@O+O++o+@+@@o Ooo",
"@+@o.@@+++@@@+++O+O++o+@+@@o Ooo",
"+O@o.@@+++@@O++@O+O++o+@+@@X.+oo",
"+O+o.@@++@@@++++OOO++o+@+@@X.+oO",
"+O+o.@@+@@@@+O+@OO@@+oO@+@@X.+oO",
"+O+o.@@+@@@@+++@OO@@+oO@+@@X.+oO",
"+O+oX@@@@@@@+++@OO+@+oO@+@@X.+oO",
"+O+oX@@@@@@@O+++OOO@+oO@+@+XX+X+",
"OO+oX@@@+@@@O+++O+O@OoO@+@+XX+X+",
"O+OOX@@@+@@+X++@++@@OoO@@@OXX+X+",
"++OOX@@@+@@+oO+@++@@+oO@+@OXX+X@",
"+@OOX@@@+@@+o++@++@@+oO@+@OXX+X@",
"+@O+X@@@+@@+o++@@+@@OoO@+@oXo+X@",
"@@o+X+@@+@@+o++@@+@@Oo+@@@oXo+X@",
"@+o+.+@@+@@+o++@@+@@Oo+@@@oXo+X@",
"@@o+.@@@+@@@X++@@++@Oo+@@@oXo+X@",
"@+o+.@@@+@@@X++@@@+@Oo+@@@oXo+o@",
"@+X@.+@@@@@@O++@@@+@Oo+@@@oXO+o@",
"@@X@X+@@@@@@oO+@@@@@OOO@@@oXOOo@",
"@@X@X+@@@@@@o++@@@+@OoO+@@oXOOo@",
"@@X@X+@@@@@@oO+@@@++OoO@@@oXOOO@",
"@@X@X+@@@@@@oO+@@@++OoO+@@oXOOO@",
"@@X@XO@@@@@@oOO@@@@+OoO+@@oXOoO@",
"@@X@oO@@@@@@OOO@@@++OoO@@+oXOoO@",
"@@X@oO@@@@@@XOO@@@++ooo@@@oXOoO@",
"@@X@oo@@@@@@OOO@@@++OoO@@@oXOXO@",
"@@X@Oo@+@@@@OOO+@@O+OoO@@@oXOXO@",
"@@X@Oo@+@@@@OOO++@O+OoO@@@oXOX+@",
"@@X@Oo@+@@@@OOO++@O+OoO@@@ooOX+@",
"@@X@Oo@O@@@@OOOO+@O+oo+@@@ooOX+@",
"@@X+OX@O@@@@OOOO+@O+oo+@@@ooO.+@",
"+@X++X@O+@@@+OOO@@O+Oo+@@@oOO.+@",
"+@X++X@O+@@@@OO+@+O+oo+@@@oOO.++",
"+@X@+X@OO@@@+OO++@O+Oo+@@@oOO.++",
"+@X+@X@+O@@@@OO++@oOOO+@@@XOO.++",
"+@X@@X@+O@@@@OO+@@o+OO@@+@XOO.++",
"@@X+@X@+O@@@@OOO@+oOOO@@+@XOO.@+",
"++X+@X@+O@@@+OOOO+oOOO@@+@X+O.@+",
"++X@@X@@o@@@+OOOO+oOOO@@+@X+O.@O",
"+@oO@X@@O@@@@OOOOOoOOO@@+@.+O.@O",
"+@oO@o@@O@@@@OOOOOoOOO@X+@.+O.+O",
"++oO@o@@O@@@@OOOOOoOOO@oO@.+OX+O",
"@+OO@o@@O@@@@OOOOOoOOO@o+@.@oX+O",
"@+OO@O@@O@@@@OOOOOoO+O@o+@.@oX@O",
"@@Oo+O@@O@@@+OOOOXo+++@o+@.@oX@O",
"@+Oo++@@+@@@@OOOOXoO++@o@@X@oX@O",
"@+Oo++@@+@@@@OOOOOoO+++o@+X@oX@O",
"@+Oo++@@@@@@@OOoOOo++O+o@+X@oo@O",
"@OOo+++@@@@@@OOoO@o+@O+X@+o@oo@O",
"@OOo+@+@@@@@@OOoOOOO@O+o@Oo@oo@O",
"@OOoO@+@@@@@@+Oo+OO+@oOo@Oo@oo@O",
"@o@oO@+@@@@@@+Oo+Oo+@oOo@OO@oO@O",
"@o@oO@+@@+@@@+OOOOO++ooO@oO@XO@O",
"@o@oO@+@@+@@@+OOOOO@@ooO@o++XO@O",
"@o+oO@@@@+@@@@OOOOO@+ooO@o++XO@O",
"@o@XO@@@@+@@@@O+O++@+oX+@o++XO@O",
"@o@XO@@@@+@@@@O++@+@+oX@@o++X+@O",
"@O@XO@@@@@@@@@+++++@+XX@+o++o++O",
"@O@XO+@@@@@@@@O++@+@OXX@+o@Oo++O",
"@o@Xo+@@@@@@@@+++@+@OXo@+o@Oo++O"
};
