/* XPM */
static char *out[] = {
/* columns rows colors chars-per-pixel */
"16 16 3 1 ",
"  c #333C57",
". c #566C86",
"X c #94B0C2",
/* pixels */
"X   ...   XXX...",
". XX    X ......",
"  ..X  X.  .....",
"      X..X  ... ",
"XXX  X....X     ",
"...X  ....  XX X",
"....X   .. X.. .",
".....X     ...  ",
"  ...   XX ..  X",
"X     XX..X . X.",
".XXX  .....  X..",
"....X  ...   ...",
"....       X  ..",
"..   XX  XX.X ..",
"   XX..X ...    ",
"  X.....     XXX"
};
