/* XPM */
static char *out[] = {
/* columns rows colors chars-per-pixel */
"16 16 4 1 ",
"  c #1A1C2C",
". c #333C57",
"X c #566C86",
"o c #94B0C2",
/* pixels */
"oooooo ..    ooo",
"ooooooo.oooooooo",
"ooooooo.oooooooo",
"ooooXXX.XXXXXooo",
"XXXXX.X.XXXXXXXX",
"XXXXXXX..XXXX.XX",
"...XXX.  X.XXX..",
"   ...   .XXX.  ",
"oooo      ... oo",
"oooooooooo   ooo",
"ooooooooooo oooo",
"ooXXXXXXXXo Xooo",
"X.XXXXXXX.X.XXXX",
"XXXX.XXXXXX.XX.X",
"....XXXX.XX.X...",
"    ...XX.. .   "
};
