/* XPM */
static char *out[] = {
/* columns rows colors chars-per-pixel */
"16 16 5 1 ",
"  c #1A1C2C",
". c #333C57",
"X c #566C86",
"o c #94B0C2",
"O c #F4F4F4",
/* pixels */
"OOooooooooooooo ",
"OXXXXXXXXXXXXXX.",
"oXXXXXXXXXXXXXX.",
"oXXXXXXXXXXXXXX.",
"oXXXXXXXXXXXXXX.",
"oXXXXXXXXXXXXXX.",
"oXXXXXXXXXXXXXX.",
"oXXXXXXXXXXXXXX.",
"oXXXXXXXXXXXXXX.",
"oXXXXXXXXXXXXXX.",
"oXXXXXXXXXXXXXX.",
"oXXXXXXXXXXXXXX.",
"oXXXXXXXXXXXXXX.",
"oXXXXXXXXXXXXXX.",
"oXXXXXXXXXXXXXX ",
" .............  "
};
