/* XPM */
static char *out[] = {
/* columns rows colors chars-per-pixel */
"16 16 5 1 ",
"  c #1A1C2C",
". c #5D275D",
"X c #B13E53",
"o c #EF7D57",
"O c #FFCD75",
/* pixels */
".      .OO..  .o",
".     .OX.   ..o",
".    .Xo.    ..o",
".....Xoo.     .o",
"oXXXoo.XO.   .Xo",
"oOoo...XXO...XoX",
".XO.   .XXoooo..",
" .O     .XoXX.  ",
"  O      Xo..   ",
"  O.    .XoX    ",
"  OO....Xo.o.   ",
" .X.O.XXo...O   ",
" OX..oo..  .X.  ",
".XX  .Xo  .XXO..",
"oo.   .OX.XXOXOo",
"o.     .OXXO..XX"
};
