/* XPM */
static char *out[] = {
/* columns rows colors chars-per-pixel */
"16 16 3 1 ",
"  c #B13E53",
". c #EF7D57",
"X c #FFCD75",
/* pixels */
"   ...        ..",
"      ......    ",
"    ..      ..  ",
"....          ..",
"        XXXXX   ",
"     XXXXXXXXX  ",
"XXXXXX......XXXX",
"XXXX..XXXXXX..XX",
"....XXXX....XX..",
"XXXXXXX........X",
".....X..........",
"................",
"........       .",
"   .... ....... ",
"...    .........",
"................"
};
