/* XPM */
static char *out[] = {
/* columns rows colors chars-per-pixel */
"16 16 5 1 ",
"  c #1A1C2C",
". c #5D275D",
"X c #B13E53",
"o c #EF7D57",
"O c #FFCD75",
/* pixels */
"   o.      ..X  ",
"  .Oo.......O   ",
" ..OoooXXXXOo.  ",
".oOoo       o...",
"X  ooX.     XXXX",
"     X...  ..XX ",
"      o.....XX. ",
".  ...OooXXXX o.",
"....OOOo.     oo",
"oooOO XX..      ",
"o       X..    .",
"o      ..O.. ..X",
"X..  ..ooOO...XX",
" X...Xoo ooOOXXX",
" XXXXX     oo   ",
"   X        .X  "
};
