/* XPM */
static char *out[] = {
/* columns rows colors chars-per-pixel */
"16 16 3 1 ",
"  c #1A1C2C",
". c #5D275D",
"X c #B13E53",
/* pixels */
"  XX  XXXXXXX X ",
"XX.XX    .     .",
" ....     ..XXX ",
".      X      .X",
"     XX XXXXX   ",
"  XX  . .XX...  ",
"XXX.      ..   X",
"X..  XX      X.X",
"..   ..XX   X.X.",
"  .  ...XX      ",
"       .. .X    ",
" XXXX     ..XXX ",
"  ... XXX .....X",
"XX .X    X  ..  ",
"..X  XXXX     ..",
"     .....XX    "
};
