/* XPM */
static char *out[] = {
/* columns rows colors chars-per-pixel */
"16 16 5 1 ",
"  c #1A1C2C",
". c #29366F",
"X c #257179",
"o c #38B764",
"O c #A7F070",
/* pixels */
".XXXo.oXXX..XXX.",
".oXO . oXo..oXXX",
". O ... O .. oXo",
".. .XXX. XXX. O ",
"XX..XXXX.XXXX. .",
"XXX.oXXX.oXXX..X",
"XXo. OXo. OXo.XX",
"Xo .. O .. O .XX",
"O XXX. .XXX ..oX",
" .XXXX..XXXX.. O",
"..oXXX..oXXX... ",
"X. OXo.. oXo..XX",
"o.. O ... O .XXX",
" ... ..... .oXXo",
"..XX..XXX... OO ",
".XXXX.XXXX..X  ."
};
