/* XPM */
static char *out[] = {
/* columns rows colors chars-per-pixel */
"16 16 4 1 ",
"  c #29366F",
". c #257179",
"X c #38B764",
"o c #A7F070",
/* pixels */
"... oXXXXXXXXo  ",
"X ..X.X.XXXXXX X",
"Xo ..XXXXX.X..oX",
"XXo  X.XXXXX.oXX",
"XXXo ....... XXX",
"XXXX. .    . X.X",
".X.X... ooo  .XX",
".XX... oXXXo ...",
"..... oXXXXXo ..",
"..    XXXX.XX  .",
"  ooo  ..XXXXo  ",
"XXXXXo ...XXXX o",
"XXX.X.  .....XXX",
"XXXXX.       XX.",
".X.... oXXXo .XX",
"..... oXXXXXo .."
};
