/* XPM */
static char *out[] = {
/* columns rows colors chars-per-pixel */
"16 16 4 1 ",
"  c #29366F",
". c #257179",
"X c #38B764",
"o c #A7F070",
/* pixels */
"       .....X ..",
"        .....   ",
"o  oXXX  .... XX",
". X.X..X  ... ..",
"  ......  ..    ",
" X.....      oX ",
" .o...       .. ",
" ....  Xooo  .. ",
"  ..   ..o.X    ",
"       .....X oX",
"   oXX  ..... ..",
"  o.X.X  .... ..",
" X.....   ...   ",
" .....     .. XX",
" ....  XXo    ..",
"  ..   .X.oX  .."
};
