/* XPM */
static char *out[] = {
/* columns rows colors chars-per-pixel */
"16 16 4 1 ",
"  c #29366F",
". c #257179",
"X c #38B764",
"o c #A7F070",
/* pixels */
"......X........X",
"........... ....",
"........o.......",
".o.. ...Xo...o..",
".X...........X..",
"................",
"....X...... ....",
"................",
" ..o...o........",
".......Xo....o..",
"......XXX....X..",
"..o..........Xo.",
".oX. ... .......",
".XXX............",
"..........o.. ..",
". ..o.....X....."
};
