/* XPM */
static char *out[] = {
/* columns rows colors chars-per-pixel */
"16 16 4 1 ",
"  c #29366F",
". c #257179",
"X c #38B764",
"o c #A7F070",
/* pixels */
"......Xo.X.....X",
"........X.. ....",
"..X.....X...X...",
".X.. ...Xo..Xo..",
"XXX........XXXX.",
"................",
"....X...... ...X",
"........o.......",
" ..o...o...oo...",
".......Xo....o..",
".X....XXX....X..",
"..X..........Xo.",
".XX. ... .......",
".XXX............",
"..........o.. ..",
". ..o.....X....."
};
