/* XPM */
static char *out[] = {
/* columns rows colors chars-per-pixel */
"16 16 3 1 ",
"  c #257179",
". c #38B764",
"X c #A7F070",
/* pixels */
"...        ..  .",
" ..XXXXXXXXX....",
"...     ........",
" ...            ",
".......XXXXXXX. ",
"   .. . ..  ...X",
"XXX ........ ...",
"...    ..XXXX...",
"....XXX    .    ",
"X...........XXXX",
".        ...    ",
"...  .XXXX..   .",
".    ...........",
" ......         ",
"..     ... .....",
".XXXX......  ..."
};
