/* XPM */
static char *out[] = {
/* columns rows colors chars-per-pixel */
"16 16 3 1 ",
"  c #257179",
". c #38B764",
"X c #A7F070",
/* pixels */
" .   .   .X     ",
"        X.X    X",
"   X        .   ",
".               ",
"     .X         ",
"      .X  X.    ",
"  X.   . X.   .X",
"XX.      .     .",
"..   X     X    ",
"                ",
"  .   X  X      ",
"     XX     .  X",
" X   X.X        ",
"          X   X ",
"  X           .X",
" X.      X     ."
};
