/* XPM */
static char *out[] = {
/* columns rows colors chars-per-pixel */
"16 16 4 1 ",
"  c #3B5DC9",
". c #41A6F6",
"X c #73EFF7",
"o c #F4F4F4",
/* pixels */
".XXXXXXXXXXXXX..",
"    XX....o.... ",
"XXXXXX.X    XX.X",
"..XXXXXoooooooo.",
"..o    .....XX..",
"XXXXX...XXX.XX..",
"oooo..XXo    ooo",
"XXXXXXX........X",
".....XXXXXXXXX..",
"    XXX  oo   XX",
"oooooXXXX...XXXX",
"XX..X...    X..X",
".o  XXXXXX......",
"XXXXXXXXXoXXoooo",
"XXX   X.XX..ooXX",
"..ooooXXoXXX...."
};
