/* XPM */
static char *out[] = {
/* columns rows colors chars-per-pixel */
"16 16 4 1 ",
"  c #3B5DC9",
". c #41A6F6",
"X c #73EFF7",
"o c #F4F4F4",
/* pixels */
"  o..X   ...... ",
"oX....     ..   ",
"......X  o    XX",
"......  X.oXX   ",
"       X.....X  ",
"XX  oXX ....   o",
"..oX...X     XX.",
"........    X...",
"..             .",
"    oXX  XX     ",
"  oX...XX..     ",
"XX  ....   oXXXX",
"..   ... oX.....",
"..XXX   X.......",
"...    X........",
".  oX   ........"
};
