/* XPM */
static char *out[] = {
/* columns rows colors chars-per-pixel */
"16 16 3 1 ",
"  c #3B5DC9",
". c #41A6F6",
"X c #73EFF7",
/* pixels */
"   X. ..X   ..  ",
"  X.   ....X    ",
"X.     ..  .X   ",
".     X     .X  ",
"  .  X.      ...",
"   X....  .    .",
"....   .X      .",
".       ..X X...",
"          .X..  ",
" .         ...X ",
"     .    X.. .X",
"X       XX     .",
"...   XX..      ",
"...XXX    .X    ",
".. ....     .X .",
"    ...X     ..."
};
