/* XPM */
static char *out[] = {
/* columns rows colors chars-per-pixel */
"16 16 3 1 ",
"  c #41A6F6",
". c #73EFF7",
"X c #F4F4F4",
/* pixels */
"................",
"................",
"................",
"XXXXXXXXXXXXXXXX",
"................",
"................",
"                ",
"                ",
"                ",
"................",
"................",
"                ",
"................",
"XXXXXXXXXXXXXXXX",
"XXXXXXXXXXXXXXXX",
"................"
};
