/* XPM */
static char *out[] = {
/* columns rows colors chars-per-pixel */
"16 16 4 1 ",
"  c #333C57",
". c #566C86",
"X c #94B0C2",
"o c #F4F4F4",
/* pixels */
"..ooooooXXooXooX",
".ooooooooXXXXXXX",
".ooooXoXXX......",
".XooooXX    .ooo",
"o XoooX  .oooooo",
"oo XoX  oooooooo",
"oo.XXX oooooXXoX",
"oX.   .ooooooXXo",
"X .....oXoooooXX",
"  ..oo.XooooXX  ",
"oooooooXXXX    .",
"ooooooo.    ...o",
"ooooooX..oooo.XX",
"XXooX  .oooooo.X",
" XXX  .ooooooo. ",
"     oooooooooo."
};
