/* XPM */
static char *out[] = {
/* columns rows colors chars-per-pixel */
"16 16 5 1 ",
"  c #5D275D",
". c #B13E53",
"X c #EF7D57",
"o c #94B0C2",
"O c #F4F4F4",
/* pixels */
"XX...X.XXOOOXX.X",
".........XOXX...",
"..........O.....",
"..........O.....",
"..........O.....",
"......... O ....",
" ...  .  OOO  ..",
"ooooooooOOOOOooo",
"XOOOX.XXX.X..XX.",
".XOX............",
"..O.............",
". O.............",
"..O ............",
". O ............",
" OOO ..  ... . .",
"oOOOoooooooooooo"
};
