/* XPM */
static char *out[] = {
/* columns rows colors chars-per-pixel */
"16 16 8 1 ",
"  c #29366F",
". c #5D275D",
"X c #257179",
"o c #B13E53",
"O c #38B764",
"+ c #A7F070",
"@ c #94B0C2",
"# c #F4F4F4",
/* pixels */
"XX XX   XX#XXXXX",
"X         #X    ",
"  o o  ooo# oo o",
"o oooo ooo#ooooo",
"oooooooooo#ooooo",
"oooooooooo#ooooo",
".+.+..+.+.#.+..+",
"O@@@OOXXXOOOOOOO",
"XX#XX XXXXXX X X",
"  #      XXX X  ",
" o#o   o  X   o ",
"oo#oooooo  o  oo",
"oo#ooooooooooooo",
"oo#o+ooooooooooo",
".+#..OO..+....+.",
"OXOOOXXOOX@OOOXO"
};
